<svg width="13" height="13" viewBox="0 0 13 13" fill="none" xmlns="http://www.w3.org/2000/svg">
<path fill-rule="evenodd" clip-rule="evenodd" d="M11.4526 0.017334H2.37437C1.53993 0.017334 0.861328 0.695934 0.861328 1.53038V10.6086C0.861328 11.4431 1.53993 12.1217 2.37437 12.1217H6.9135V7.96081H5.40046V6.06951H6.9135V4.55646C6.9135 3.95454 7.15262 3.37727 7.57824 2.95164C8.00387 2.52601 8.58114 2.2869 9.18307 2.2869H10.6961V4.1782H9.93959C9.52199 4.1782 9.18307 4.13886 9.18307 4.55646V6.06951H11.0744L10.3179 7.96081H9.18307V12.1217H11.4526C12.2871 12.1217 12.9657 11.4431 12.9657 10.6086V1.53038C12.9657 0.695934 12.2871 0.017334 11.4526 0.017334Z" fill="white"/>
</svg>
