<svg width="19" height="12" viewBox="0 0 19 12" fill="none" xmlns="http://www.w3.org/2000/svg">
<path d="M6.00513 5.09868V7.23718H9.28113C9.19013 8.10168 8.32563 9.73968 6.00513 9.73968C4.04863 9.73968 2.45613 8.10168 2.45613 6.09968C2.45613 4.09768 3.95763 2.45968 5.91413 2.45968C7.05163 2.45968 7.82513 2.91468 8.23463 3.32418L9.82713 1.82268C9.01101 1.04821 7.98353 0.533198 6.87466 0.342787C5.76579 0.152377 4.62536 0.295126 3.59763 0.752976C2.5699 1.21083 1.70106 1.9632 1.10101 2.91493C0.500963 3.86666 0.19667 4.97498 0.226626 6.09968C0.226626 9.28468 2.82013 11.8782 6.00513 11.8782C9.37213 11.8782 11.5561 9.46668 11.5561 6.19068L11.4651 5.09868" fill="white"/>
<path fill-rule="evenodd" clip-rule="evenodd" d="M16.3564 6.53193V8.55668H15.0369V6.53193H13.0121V5.21243H15.0369V3.18768H16.3564V5.21243H18.3811V6.53193H16.3564Z" fill="white"/>
</svg>
