<svg width="13" height="13" viewBox="0 0 13 13" fill="none" xmlns="http://www.w3.org/2000/svg">
<path d="M6.69671 1.1111C8.3009 1.1111 8.51965 1.1111 9.17591 1.1111C9.75925 1.1111 10.0509 1.25694 10.2697 1.32985C10.5613 1.47569 10.7801 1.54861 10.9989 1.76736C11.2176 1.98611 11.3634 2.20487 11.4364 2.49654C11.5093 2.71529 11.5822 3.00696 11.6551 3.5903C11.6551 4.24656 11.6551 4.3924 11.6551 6.06951C11.6551 7.74662 11.6551 7.89245 11.6551 8.54871C11.6551 9.13205 11.5093 9.42373 11.4364 9.64248C11.2905 9.93415 11.2176 10.1529 10.9989 10.3717C10.7801 10.5904 10.5613 10.7362 10.2697 10.8092C10.0509 10.8821 9.75925 10.955 9.17591 11.0279C8.51965 11.0279 8.37381 11.0279 6.69671 11.0279C5.0196 11.0279 4.87376 11.0279 4.2175 11.0279C3.63416 11.0279 3.34249 10.8821 3.12374 10.8092C2.83206 10.6633 2.61331 10.5904 2.39456 10.3717C2.1758 10.1529 2.02997 9.93415 1.95705 9.64248C1.88413 9.42373 1.81122 9.13205 1.7383 8.54871C1.7383 7.89245 1.7383 7.74662 1.7383 6.06951C1.7383 4.3924 1.7383 4.24656 1.7383 3.5903C1.7383 3.00696 1.88413 2.71529 1.95705 2.49654C2.10289 2.20487 2.1758 1.98611 2.39456 1.76736C2.61331 1.54861 2.83206 1.40277 3.12374 1.32985C3.34249 1.25694 3.63416 1.18402 4.2175 1.1111C4.87376 1.1111 5.09251 1.1111 6.69671 1.1111ZM6.69671 0.017334C5.0196 0.017334 4.87376 0.017334 4.2175 0.017334C3.56124 0.017334 3.12374 0.16317 2.75915 0.309005C2.39456 0.454841 2.02997 0.673594 1.66538 1.03818C1.30079 1.40277 1.15496 1.69444 0.936203 2.13195C0.790367 2.49654 0.717449 2.93404 0.644531 3.5903C0.644531 4.24656 0.644531 4.46532 0.644531 6.06951C0.644531 7.74662 0.644531 7.89245 0.644531 8.54871C0.644531 9.20497 0.790367 9.64248 0.936203 10.0071C1.08204 10.3717 1.30079 10.7362 1.66538 11.1008C2.02997 11.4654 2.32164 11.6113 2.75915 11.83C3.12374 11.9758 3.56124 12.0488 4.2175 12.1217C4.87376 12.1217 5.09251 12.1217 6.69671 12.1217C8.3009 12.1217 8.51965 12.1217 9.17591 12.1217C9.83217 12.1217 10.2697 11.9758 10.6343 11.83C10.9989 11.6842 11.3634 11.4654 11.728 11.1008C12.0926 10.7362 12.2385 10.4446 12.4572 10.0071C12.603 9.64248 12.676 9.20497 12.7489 8.54871C12.7489 7.89245 12.7489 7.6737 12.7489 6.06951C12.7489 4.46532 12.7489 4.24656 12.7489 3.5903C12.7489 2.93404 12.603 2.49654 12.4572 2.13195C12.3114 1.76736 12.0926 1.40277 11.728 1.03818C11.3634 0.673594 11.0718 0.527759 10.6343 0.309005C10.2697 0.16317 9.83217 0.0902518 9.17591 0.017334C8.51965 0.017334 8.37381 0.017334 6.69671 0.017334Z" fill="white"/>
<path d="M6.69671 2.93404C4.94668 2.93404 3.56124 4.31948 3.56124 6.06951C3.56124 7.81954 4.94668 9.20497 6.69671 9.20497C8.44673 9.20497 9.83217 7.81954 9.83217 6.06951C9.83217 4.31948 8.44673 2.93404 6.69671 2.93404ZM6.69671 8.11121C5.60294 8.11121 4.65501 7.23619 4.65501 6.06951C4.65501 4.97574 5.53002 4.02781 6.69671 4.02781C7.79047 4.02781 8.7384 4.90282 8.7384 6.06951C8.7384 7.16328 7.79047 8.11121 6.69671 8.11121Z" fill="white"/>
<path d="M9.90509 3.5903C10.3078 3.5903 10.6343 3.26384 10.6343 2.86113C10.6343 2.45841 10.3078 2.13195 9.90509 2.13195C9.50237 2.13195 9.17591 2.45841 9.17591 2.86113C9.17591 3.26384 9.50237 3.5903 9.90509 3.5903Z" fill="white"/>
</svg>
