<svg width="13" height="19" viewBox="0 0 13 19" fill="none" xmlns="http://www.w3.org/2000/svg">
<path d="M6.5 13.4159C7.94375 12.2492 9.03385 11.1263 9.77031 10.0471C10.5068 8.96795 10.875 7.95441 10.875 7.00649C10.875 5.69399 10.4667 4.61483 9.65 3.76899C8.83333 2.92316 7.78333 2.50024 6.5 2.50024C5.21667 2.50024 4.16667 2.92316 3.35 3.76899C2.53333 4.61483 2.125 5.69399 2.125 7.00649C2.125 7.95441 2.49323 8.96795 3.22969 10.0471C3.96615 11.1263 5.05625 12.2492 6.5 13.4159ZM6.5 15.6252C4.44375 14.1086 2.90885 12.6357 1.89531 11.2065C0.881771 9.77733 0.375 8.37733 0.375 7.00649C0.375 5.18358 0.94375 3.68514 2.08125 2.51118C3.21875 1.33722 4.69167 0.750244 6.5 0.750244C8.30833 0.750244 9.78125 1.33722 10.9188 2.51118C12.0563 3.68514 12.625 5.18358 12.625 7.00649C12.625 8.37733 12.1182 9.77733 11.1047 11.2065C10.0911 12.6357 8.55625 14.1086 6.5 15.6252ZM6.5 8.62524C6.98125 8.62524 7.39323 8.45389 7.73594 8.11118C8.07865 7.76847 8.25 7.35649 8.25 6.87524C8.25 6.39399 8.07865 5.98201 7.73594 5.63931C7.39323 5.2966 6.98125 5.12524 6.5 5.12524C6.01875 5.12524 5.60677 5.2966 5.26406 5.63931C4.92135 5.98201 4.75 6.39399 4.75 6.87524C4.75 7.35649 4.92135 7.76847 5.26406 8.11118C5.60677 8.45389 6.01875 8.62524 6.5 8.62524ZM0.375 18.2502V16.5002H12.625V18.2502H0.375Z" fill="white"/>
</svg>
