<svg width="19" height="18" viewBox="0 0 19 18" fill="none" xmlns="http://www.w3.org/2000/svg">
<path d="M17.7673 4.32744L17.7619 4.30667C17.3277 2.60824 15.3699 0.785733 13.5721 0.406573L13.5518 0.402533C10.6439 -0.134178 7.69537 -0.134178 4.78803 0.402533L4.76715 0.406573C2.9699 0.785733 1.01218 2.60824 0.577332 4.30667L0.57256 4.32744C0.0357093 6.69936 0.0357093 9.10474 0.57256 11.4767L0.577332 11.4974C0.99363 13.1234 2.80556 14.8621 4.53631 15.3403V17.2363C4.53631 17.9224 5.40063 18.2595 5.89215 17.7643L7.8776 15.7676C8.30822 15.7909 8.73907 15.8039 9.16992 15.8039C10.6337 15.8039 12.0981 15.67 13.5518 15.4016L13.5721 15.3976C15.3699 15.0184 17.3277 13.1959 17.7619 11.4975L17.7673 11.4767C18.3041 9.10475 18.3041 6.69936 17.7673 4.32744ZM16.1961 11.1327C15.9062 12.2408 14.4197 13.6183 13.2387 13.8728C11.6925 14.1573 10.134 14.2789 8.57718 14.2371C8.54622 14.2363 8.51645 14.2479 8.49486 14.2694C8.27392 14.4888 7.04519 15.7092 7.04519 15.7092L5.50323 17.2402C5.39049 17.3539 5.19246 17.2766 5.19246 17.1196V13.9789C5.19246 13.927 5.15416 13.8829 5.10149 13.8729C5.10119 13.8729 5.10179 13.873 5.10149 13.8729C3.92042 13.6184 2.43364 12.2407 2.14315 11.1326C1.65998 8.98869 1.65998 6.8153 2.14315 4.67134C2.43364 3.5633 3.91952 2.18574 5.10059 1.93123C7.80095 1.43434 10.5389 1.43434 13.2387 1.93123C14.4203 2.18574 15.9062 3.5633 16.1961 4.67134C16.6798 6.81536 16.6798 8.98875 16.1961 11.1327Z" fill="white"/>
<path d="M11.7386 12.5824C11.557 12.5291 11.384 12.4933 11.2233 12.4288C9.55809 11.7603 8.02555 10.898 6.81161 9.57617C6.12128 8.82449 5.58097 7.97585 5.12423 7.07776C4.90764 6.65186 4.72511 6.20927 4.53906 5.76958C4.36941 5.3686 4.61929 4.95435 4.88241 4.65224C5.1293 4.36871 5.447 4.15171 5.79106 3.9918C6.0596 3.86697 6.32451 3.93894 6.52064 4.15916C6.94463 4.63527 7.33409 5.13574 7.64946 5.68763C7.84338 6.02708 7.79018 6.44202 7.43872 6.67304C7.3533 6.72919 7.27545 6.79509 7.19588 6.85852C7.12609 6.91409 7.06041 6.97025 7.01257 7.0455C6.92513 7.1832 6.92095 7.3456 6.97726 7.4953C7.41068 8.64766 8.14122 9.54374 9.34007 10.0264C9.5319 10.1036 9.72457 10.1935 9.94558 10.1686C10.3157 10.1267 10.4355 9.73395 10.6949 9.52873C10.9484 9.32819 11.2724 9.32553 11.5455 9.49272C11.8186 9.65997 12.0834 9.83951 12.3466 10.0209C12.6049 10.199 12.8621 10.3733 13.1004 10.5763C13.3295 10.7715 13.4084 11.0277 13.2794 11.2926C13.0432 11.7778 12.6995 12.1815 12.2037 12.4392C12.0637 12.5119 11.8965 12.5354 11.7386 12.5824C11.8965 12.5354 11.557 12.5291 11.7386 12.5824Z" fill="white"/>
<path d="M9.1741 3.43699C11.3522 3.49602 13.1412 4.89453 13.5245 6.9779C13.5899 7.33288 13.6131 7.69582 13.6422 8.05611C13.6544 8.20766 13.5657 8.35165 13.3966 8.35361C13.2221 8.35563 13.1435 8.2143 13.1322 8.06281C13.1097 7.76294 13.0942 7.46175 13.0515 7.16436C12.826 5.59457 11.5322 4.29584 9.91715 4.01715C9.67414 3.9752 9.4254 3.96418 9.17923 3.93919C9.0236 3.92337 8.81978 3.91426 8.7853 3.7271C8.75637 3.57018 8.89326 3.44524 9.0477 3.43722C9.08969 3.43497 9.13192 3.43681 9.1741 3.43699C11.3522 3.49602 9.13192 3.43681 9.1741 3.43699Z" fill="white"/>
<path d="M12.484 7.58844C12.4804 7.61476 12.4785 7.67662 12.4626 7.73491C12.4048 7.94648 12.0732 7.97297 11.9969 7.75944C11.9743 7.69607 11.9709 7.62399 11.9708 7.55578C11.97 7.10944 11.8697 6.66356 11.6371 6.27523C11.398 5.8761 11.0326 5.54057 10.6041 5.33754C10.345 5.21479 10.0647 5.13849 9.78074 5.09302C9.65661 5.07317 9.53116 5.0611 9.40643 5.04431C9.25528 5.02399 9.17458 4.93079 9.18174 4.78669C9.18842 4.65164 9.29042 4.55452 9.44252 4.56283C9.94239 4.5903 10.4252 4.69481 10.8696 4.92248C11.7733 5.3855 12.2895 6.11635 12.4402 7.09224C12.447 7.13645 12.4579 7.18025 12.4614 7.22463C12.4699 7.33422 12.4753 7.44393 12.484 7.58844C12.4804 7.61476 12.4753 7.44393 12.484 7.58844Z" fill="white"/>
<path d="M11.1294 7.5374C10.9472 7.54058 10.8496 7.44299 10.8308 7.28134C10.8178 7.16863 10.8075 7.05442 10.7797 6.94477C10.7249 6.72881 10.6063 6.52867 10.4185 6.39634C10.3298 6.33384 10.2294 6.28831 10.1242 6.25893C9.99049 6.22159 9.85169 6.23186 9.71831 6.20024C9.57347 6.1659 9.49337 6.05244 9.51615 5.92098C9.53685 5.80134 9.65717 5.70796 9.79227 5.71743C10.6367 5.77641 11.2403 6.1988 11.3264 7.16061C11.3325 7.22848 11.3397 7.30021 11.3241 7.36514C11.2974 7.47629 11.2124 7.53198 11.1294 7.5374C11.2124 7.53198 10.9472 7.54058 11.1294 7.5374Z" fill="white"/>
</svg>
