<svg width="12" height="10" viewBox="0 0 12 10" fill="none" xmlns="http://www.w3.org/2000/svg">
<path d="M0.877198 4.1355C4.00505 2.79945 6.09077 1.91863 7.13437 1.49307C10.114 0.277997 10.7332 0.066926 11.1368 0.059882C11.2255 0.0584234 11.424 0.0799892 11.5525 0.182257C11.6611 0.268609 11.6909 0.385259 11.7052 0.467131C11.7195 0.549003 11.7373 0.735508 11.7232 0.881239C11.5617 2.54458 10.863 6.58107 10.5076 8.44404C10.3572 9.23234 10.061 9.49665 9.77431 9.52251C9.15123 9.57873 8.67809 9.11881 8.07461 8.73097C7.13028 8.12407 6.5968 7.74628 5.68016 7.15406C4.62083 6.46965 5.30755 6.09349 5.91126 5.47874C6.06925 5.31785 8.81455 2.86971 8.86769 2.64762C8.87433 2.61985 8.8805 2.51632 8.81776 2.46165C8.75503 2.40698 8.66243 2.42567 8.59561 2.44054C8.5009 2.46161 6.99232 3.4392 4.06987 5.37328C3.64167 5.66156 3.25381 5.80202 2.90631 5.79466C2.52321 5.78655 1.78629 5.5823 1.23846 5.40771C0.56653 5.19357 0.032492 5.08035 0.0789947 4.71668C0.103216 4.52725 0.369284 4.33353 0.877198 4.1355Z" fill="white"/>
</svg>
