<svg width="14" height="14" viewBox="0 0 14 14" fill="none" xmlns="http://www.w3.org/2000/svg">
<path fill-rule="evenodd" clip-rule="evenodd" d="M11.1854 2.12339C9.95642 0.894449 8.31783 0.239014 6.59732 0.239014C2.99243 0.239014 0.0429688 3.18847 0.0429688 6.79336C0.0429688 7.94037 0.370691 9.08738 0.944197 10.0705L0.0429688 13.3477L3.48401 12.4465C4.46716 12.9381 5.53224 13.2658 6.59732 13.2658C10.2022 13.2658 13.1517 10.3163 13.1517 6.71143C13.1517 4.99092 12.4143 3.35233 11.1854 2.12339ZM6.59732 12.2007C5.61416 12.2007 4.63102 11.9549 3.81172 11.4633L3.64786 11.3814L1.59962 11.9549L2.17314 9.98861L2.00927 9.74282C1.43576 8.8416 1.18997 7.85844 1.18997 6.87529C1.18997 3.92583 3.64786 1.46795 6.59732 1.46795C8.07205 1.46795 9.38293 2.04146 10.448 3.02461C11.5131 4.08969 12.0047 5.40056 12.0047 6.87529C12.0047 9.74282 9.6287 12.2007 6.59732 12.2007ZM9.54678 8.10423C9.38292 8.0223 8.56363 7.61266 8.39977 7.61266C8.23591 7.53073 8.15396 7.53073 8.07203 7.69458C7.99011 7.85844 7.66241 8.18616 7.58048 8.35002C7.49855 8.43195 7.4166 8.43195 7.25274 8.43195C7.08888 8.35002 6.59733 8.18616 5.94189 7.61266C5.45032 7.20301 5.12259 6.6295 5.04066 6.46564C4.95873 6.30179 5.04067 6.21986 5.1226 6.13793C5.20453 6.056 5.28645 5.97407 5.36838 5.89214C5.45031 5.81021 5.45032 5.72828 5.53225 5.64635C5.61417 5.56442 5.53225 5.48249 5.53225 5.40056C5.53225 5.31863 5.20452 4.49934 5.04066 4.17162C4.95873 3.92583 4.79488 3.92583 4.71295 3.92583C4.63102 3.92583 4.54907 3.92583 4.38521 3.92583C4.30329 3.92583 4.13943 3.92583 3.97557 4.08969C3.81171 4.25355 3.40208 4.6632 3.40208 5.48249C3.40208 6.30179 3.97557 7.03915 4.0575 7.20301C4.13943 7.28494 5.20451 9.00545 6.84309 9.66089C8.23589 10.2344 8.4817 10.0705 8.80942 10.0705C9.13714 10.0705 9.79256 9.66089 9.87449 9.33317C10.0383 8.92352 10.0384 8.59581 9.95642 8.59581C9.8745 8.18616 9.71064 8.18616 9.54678 8.10423Z" fill="white"/>
</svg>
