<svg width="18" height="13" viewBox="0 0 18 13" fill="none" xmlns="http://www.w3.org/2000/svg">
<path d="M16.993 1.8546C16.785 1.09808 16.2649 0.557707 15.5367 0.341558C14.2885 0.0173342 8.98334 0.017334 8.98334 0.017334C8.98334 0.017334 3.78226 0.0173342 2.42998 0.341558C1.70183 0.557707 1.18171 1.09808 0.973665 1.8546C0.765622 3.25957 0.765625 6.06951 0.765625 6.06951C0.765625 6.06951 0.765628 8.87945 1.07769 10.2844C1.28574 11.0409 1.80584 11.5813 2.53399 11.7975C3.78225 12.1217 9.08736 12.1217 9.08736 12.1217C9.08736 12.1217 14.2884 12.1217 15.6407 11.7975C16.3689 11.5813 16.889 11.0409 17.0971 10.2844C17.4091 8.87945 17.4091 6.06951 17.4091 6.06951C17.4091 6.06951 17.4091 3.25957 16.993 1.8546ZM7.42301 8.6633V3.47572L11.7919 6.06951L7.42301 8.6633Z" fill="white"/>
</svg>
