<svg width="868" height="869" viewBox="0 0 868 869" fill="none" xmlns="http://www.w3.org/2000/svg">
<path opacity="0.7" d="M117.926 290.566C117.926 290.566 69.5259 415.558 137.542 541.418C205.559 667.278 345.654 733.767 457.782 790.621C569.911 847.475 686.344 819.786 741.67 726.667C796.997 633.548 721.116 567.077 721.012 434.29C720.908 301.503 740.889 266.349 668.932 154.169C596.975 41.9886 420.58 17.1464 287.186 100.353C153.791 183.559 117.926 290.566 117.926 290.566Z" fill="white"/>
<path d="M229.151 742.761C270.12 786.022 370.704 770.173 414.278 742.761C555.762 653.791 803.628 505.676 814.86 291.106C819.634 199.914 739.205 152.018 705.613 137.973C624.959 104.226 536.423 94.1047 449.015 90.1987C357.754 86.1191 259.791 89.296 177.661 133.824C146.517 150.681 117.144 172.364 97.0412 201.876C76.6259 231.874 64.8732 267.601 61.7484 303.657C56.7313 361.813 72.3727 420.125 96.0344 473.49C119.696 526.855 151.239 576.261 180.196 626.952C199.101 659.989 194.709 706.322 229.151 742.761Z" fill="#3446CD"/>
<path opacity="0.7" d="M229.151 742.761C270.12 786.022 370.704 770.173 414.278 742.761C555.762 653.791 803.628 505.676 814.86 291.106C819.634 199.914 739.205 152.018 705.613 137.973C624.959 104.226 536.423 94.1047 449.015 90.1987C357.754 86.1191 259.791 89.296 177.661 133.824C146.517 150.681 117.144 172.364 97.0412 201.876C76.6259 231.874 64.8732 267.601 61.7484 303.657C56.7313 361.813 72.3727 420.125 96.0344 473.49C119.696 526.855 151.239 576.261 180.196 626.952C199.101 659.989 194.709 706.322 229.151 742.761Z" fill="white"/>
<path d="M245.143 244.607L161.898 219.46C158.668 218.485 155.258 220.312 154.282 223.543L139.476 272.557C138.5 275.787 140.327 279.197 143.558 280.173L226.803 305.32C230.033 306.296 233.444 304.468 234.42 301.237L249.226 252.224C250.202 248.993 248.374 245.583 245.143 244.607Z" stroke="#263238" stroke-width="1.74094" stroke-miterlimit="10"/>
<path d="M151.346 231.111L245.975 259.79" stroke="#263238" stroke-width="1.736" stroke-miterlimit="10"/>
<path d="M148.465 240.607L243.112 269.286" stroke="#263238" stroke-width="1.736" stroke-miterlimit="10"/>
<path d="M214.309 287.046C214.068 287.845 213.991 288.684 214.084 289.514C214.176 290.343 214.436 291.145 214.847 291.872C213.428 292.572 211.796 292.709 210.281 292.254C209.316 291.962 208.437 291.438 207.722 290.728C207.006 290.018 206.476 289.143 206.177 288.181C205.878 287.218 205.82 286.196 206.008 285.206C206.196 284.216 206.624 283.286 207.255 282.5C207.885 281.713 208.699 281.093 209.625 280.694C210.55 280.296 211.56 280.13 212.565 280.212C213.569 280.294 214.539 280.621 215.387 281.165C216.236 281.709 216.939 282.452 217.433 283.331C216.691 283.71 216.032 284.234 215.495 284.872C214.959 285.51 214.555 286.249 214.309 287.046Z" stroke="#263238" stroke-width="1.736" stroke-miterlimit="10"/>
<path d="M226.097 290.621C225.742 291.787 225.049 292.821 224.106 293.594C223.162 294.366 222.011 294.841 220.798 294.959C219.585 295.077 218.364 294.832 217.289 294.256C216.215 293.68 215.336 292.798 214.763 291.722C214.19 290.647 213.948 289.425 214.07 288.212C214.191 286.999 214.669 285.849 215.444 284.908C216.219 283.967 217.255 283.277 218.422 282.925C219.589 282.573 220.834 282.575 222 282.93C223.563 283.407 224.873 284.485 225.641 285.927C226.409 287.369 226.573 289.058 226.097 290.621Z" stroke="#263238" stroke-width="1.736" stroke-miterlimit="10"/>
<path d="M810.948 362.92L742.117 342.06C738.896 341.084 735.494 342.904 734.518 346.124L722.454 385.931C721.478 389.152 723.298 392.554 726.518 393.53L795.349 414.39C798.57 415.366 801.972 413.546 802.948 410.326L815.012 370.519C815.988 367.298 814.168 363.896 810.948 362.92Z" stroke="#263238" stroke-width="1.736" stroke-miterlimit="10"/>
<path d="M732.662 352.252L813.16 376.643" stroke="#263238" stroke-width="1.736" stroke-miterlimit="10"/>
<path d="M730.213 360.342L810.694 384.733" stroke="#263238" stroke-width="1.736" stroke-miterlimit="10"/>
<path d="M786.218 399.779C786.011 400.456 785.944 401.169 786.021 401.874C786.099 402.578 786.32 403.259 786.67 403.876C785.91 404.245 785.071 404.425 784.227 404.398C783.382 404.371 782.556 404.139 781.821 403.722C781.086 403.305 780.464 402.715 780.008 402.004C779.551 401.292 779.275 400.481 779.203 399.639C779.13 398.797 779.264 397.95 779.592 397.171C779.92 396.392 780.433 395.705 781.086 395.168C781.739 394.632 782.512 394.262 783.34 394.092C784.168 393.921 785.025 393.954 785.836 394.189C787.125 394.576 788.214 395.447 788.874 396.619C788.24 396.937 787.677 397.381 787.22 397.925C786.763 398.468 786.422 399.099 786.218 399.779Z" stroke="#263238" stroke-width="1.736" stroke-miterlimit="10"/>
<path d="M796.235 402.87C795.927 403.851 795.337 404.718 794.538 405.364C793.739 406.01 792.767 406.405 791.744 406.499C790.721 406.594 789.692 406.384 788.788 405.895C787.885 405.407 787.145 404.662 786.664 403.754C786.182 402.847 785.98 401.817 786.083 400.794C786.185 399.772 786.587 398.803 787.239 398.009C787.891 397.215 788.764 396.631 789.746 396.332C790.729 396.032 791.779 396.03 792.763 396.326C793.423 396.524 794.037 396.851 794.569 397.288C795.102 397.725 795.542 398.264 795.865 398.873C796.188 399.482 796.387 400.148 796.451 400.835C796.514 401.521 796.441 402.213 796.235 402.87Z" stroke="#263238" stroke-width="1.736" stroke-miterlimit="10"/>
<path d="M700.788 172.737L600.305 218.742L624.239 271.02L724.722 225.015L700.788 172.737Z" stroke="#263238" stroke-width="1.736" stroke-miterlimit="10"/>
<path d="M716.083 217.501L700.876 184.292C699.455 184.94 697.835 184.999 696.371 184.456C694.907 183.913 693.718 182.811 693.064 181.393L611.837 218.578C612.485 219.998 612.544 221.618 612.001 223.083C611.458 224.547 610.356 225.736 608.938 226.39L624.145 259.599C624.849 259.276 625.61 259.096 626.384 259.068C627.159 259.039 627.931 259.164 628.657 259.435C629.382 259.706 630.048 260.118 630.614 260.647C631.18 261.175 631.637 261.81 631.957 262.516L713.167 225.313C712.844 224.609 712.663 223.848 712.635 223.074C712.607 222.3 712.732 221.528 713.003 220.802C713.274 220.076 713.685 219.411 714.214 218.844C714.743 218.278 715.378 217.822 716.083 217.501Z" stroke="#263238" stroke-width="1.736" stroke-miterlimit="10"/>
<path d="M671.714 233.867C678.329 228.786 679.572 219.305 674.491 212.69C669.41 206.075 659.928 204.831 653.313 209.913C646.698 214.994 645.455 224.476 650.536 231.091C655.618 237.706 665.099 238.949 671.714 233.867Z" stroke="#263238" stroke-width="1.736" stroke-miterlimit="10"/>
<path d="M666.624 229.202L667.752 231.667L666.676 232.153L665.565 229.722C663.663 230.55 661.532 230.685 659.541 230.104V228.594C661.3 229.126 663.189 229.034 664.888 228.334L662.336 222.709C659.697 223.212 656.972 223.594 655.67 220.747C654.732 218.699 655.392 216.234 658.551 214.48L657.423 211.998L658.499 211.512L659.68 214.029C661.241 213.351 662.961 213.123 664.645 213.369V214.88C663.162 214.665 661.649 214.839 660.253 215.383L662.857 221.077C665.547 220.539 668.412 220.053 669.801 222.935C670.669 224.931 669.922 227.448 666.624 229.202ZM661.659 221.199L659.194 215.765C657.058 216.963 656.59 218.56 657.215 219.914C657.944 221.615 659.68 221.546 661.641 221.199H661.659ZM668.204 223.646C667.44 221.91 665.6 222.084 663.551 222.483L665.999 227.847C668.36 226.598 668.811 225.018 668.186 223.646H668.204Z" fill="#263238"/>
<path d="M146.248 410.88L68.9785 417.834L72.5955 458.022L149.865 451.068L146.248 410.88Z" stroke="#263238" stroke-width="1.74302" stroke-miterlimit="10"/>
<path d="M143.652 442.94L141.465 417.508C140.376 417.599 139.296 417.256 138.46 416.553C137.624 415.851 137.1 414.846 137.003 413.758L74.7849 419.139C74.8718 420.227 74.527 421.304 73.8253 422.139C73.1235 422.974 72.1211 423.499 71.0352 423.601L73.2225 449.033C73.7619 448.986 74.3053 449.045 74.8217 449.208C75.338 449.371 75.8172 449.634 76.2317 449.982C76.6462 450.33 76.9878 450.757 77.237 451.238C77.4863 451.718 77.6382 452.244 77.684 452.783L139.902 447.401C139.815 446.314 140.16 445.236 140.862 444.402C141.564 443.567 142.566 443.041 143.652 442.94Z" stroke="#263238" stroke-width="1.736" stroke-miterlimit="10"/>
<path d="M117.874 432.367C118.055 434.45 117.615 436.541 116.608 438.374C115.6 440.207 114.072 441.7 112.217 442.664C110.361 443.628 108.261 444.021 106.182 443.791C104.103 443.562 102.139 442.721 100.539 441.375C98.9378 440.029 97.7721 438.239 97.1889 436.231C96.6057 434.222 96.6313 432.086 97.2624 430.092C97.8935 428.099 99.1017 426.337 100.734 425.03C102.367 423.723 104.35 422.929 106.434 422.749C107.817 422.628 109.21 422.781 110.534 423.198C111.858 423.616 113.087 424.291 114.15 425.185C115.212 426.078 116.088 427.172 116.727 428.405C117.367 429.637 117.756 430.984 117.874 432.367Z" stroke="#263238" stroke-width="1.736" stroke-miterlimit="10"/>
<path d="M108.326 439.068L108.482 440.96H107.666L107.493 439.085C106.05 439.181 104.619 438.77 103.448 437.922L103.83 436.95C104.866 437.703 106.126 438.082 107.406 438.026L107.041 433.703C105.184 433.426 103.292 433.026 103.118 430.856C102.979 429.277 103.986 427.801 106.486 427.384L106.33 425.492H107.146L107.302 427.35C108.506 427.273 109.708 427.531 110.774 428.096L110.444 429.086C109.518 428.604 108.484 428.365 107.441 428.391L107.805 432.749C109.697 433.026 111.711 433.391 111.902 435.596C112.006 437.21 110.913 438.686 108.326 439.068ZM106.937 432.627L106.573 428.513C104.837 428.808 104.212 429.745 104.298 430.787C104.385 431.829 105.548 432.401 106.937 432.627ZM110.67 435.787C110.548 434.485 109.316 434.051 107.875 433.912L108.222 438.026C110.027 437.731 110.756 436.828 110.67 435.787Z" fill="#263238"/>
<path d="M771.357 196.165C779.698 196.165 786.46 189.403 786.46 181.062C786.46 172.721 779.698 165.959 771.357 165.959C763.016 165.959 756.254 172.721 756.254 181.062C756.254 189.403 763.016 196.165 771.357 196.165Z" stroke="#263238" stroke-width="1.736" stroke-miterlimit="10"/>
<path d="M772.033 189.449V192.157H770.783V189.466C768.712 189.425 766.719 188.671 765.141 187.331L765.818 185.977C767.198 187.189 768.948 187.898 770.783 187.99V181.793C768.179 181.151 765.575 180.352 765.575 177.227C765.575 174.97 767.206 173.009 770.783 172.731V169.971H771.963V172.661C773.666 172.698 775.326 173.209 776.754 174.137L776.164 175.526C774.906 174.714 773.458 174.241 771.963 174.154V180.404C774.619 181.046 777.431 181.793 777.431 184.97C777.501 187.244 775.782 189.24 772.033 189.449ZM770.852 180.092V174.207C768.422 174.415 767.38 175.665 767.38 177.158C767.311 178.946 768.908 179.605 770.783 180.092H770.852ZM775.782 185.057C775.782 183.199 774.046 182.557 772.033 182.053V187.99C774.619 187.765 775.782 186.567 775.782 185.057Z" fill="#263238"/>
<path d="M671.883 383.118C680.002 381.205 685.032 373.073 683.119 364.954C681.206 356.835 673.073 351.804 664.954 353.717C656.836 355.631 651.805 363.763 653.718 371.882C655.631 380.001 663.764 385.032 671.883 383.118Z" stroke="#263238" stroke-width="1.736" stroke-miterlimit="10"/>
<path d="M664.611 375.893L663.205 378.202L662.198 377.577L663.604 375.285C661.856 374.175 660.553 372.485 659.924 370.511L661.208 369.713C661.752 371.46 662.872 372.972 664.385 374.001L667.649 368.706C665.757 366.814 663.934 364.748 665.566 362.092C666.746 360.165 669.159 359.349 672.388 360.998L673.812 358.672L674.819 359.297L673.413 361.588C674.836 362.516 675.982 363.812 676.728 365.338L675.496 366.223C674.841 364.877 673.856 363.718 672.631 362.856L669.35 368.185C671.295 370.129 673.291 372.23 671.624 374.938C670.427 376.883 667.927 377.664 664.611 375.893ZM668.517 367.213L671.59 362.196C669.42 361.102 667.84 361.588 667.059 362.856C666.121 364.47 667.111 365.876 668.517 367.3V367.213ZM670.114 374.018C671.086 372.438 669.958 370.997 668.482 369.504L665.392 374.539C667.701 375.824 669.316 375.476 670.097 374.105L670.114 374.018Z" fill="#263238"/>
<path d="M451.674 76.8854C452.915 79.6026 453.322 82.6265 452.844 85.5749C452.366 88.5233 451.024 91.2638 448.989 93.4498C446.953 95.6358 444.315 97.1692 441.408 97.8561C438.502 98.543 435.456 98.3525 432.658 97.3088C429.859 96.2651 427.433 94.415 425.686 91.9924C423.938 89.5698 422.949 86.6836 422.842 83.6986C422.735 80.7136 423.515 77.7639 425.085 75.2224C426.654 72.681 428.942 70.662 431.658 69.4206C433.462 68.5938 435.412 68.131 437.395 68.0588C439.378 67.9866 441.356 68.3064 443.215 68.9998C445.075 69.6932 446.779 70.7467 448.23 72.0998C449.682 73.453 450.852 75.0792 451.674 76.8854Z" stroke="#263238" stroke-width="1.736" stroke-miterlimit="10"/>
<path d="M442.039 90.4787L443.167 92.9438L442.091 93.4472L440.945 90.9995C439.043 91.827 436.912 91.9621 434.921 91.3814V89.8711C436.673 90.4006 438.554 90.3149 440.251 89.628L437.681 83.9687C435.043 84.4721 432.317 84.8367 431.015 82.007C430.078 79.9412 430.737 77.4934 433.914 75.74L432.786 73.2576L433.845 72.7715L434.973 75.2192C436.534 74.5418 438.254 74.3133 439.938 74.5596V76.0699C438.455 75.8597 436.943 76.0331 435.546 76.5733L438.15 82.2674C440.841 81.7292 443.705 81.2605 445.094 84.1249C446.153 86.2081 445.354 88.7253 442.039 90.4787ZM437.074 82.4757L434.626 77.1115C432.491 78.3093 432.022 79.9064 432.647 81.2432C433.393 82.875 435.112 82.8229 437.074 82.4757ZM443.618 84.9235C442.837 83.1875 441.014 83.3784 438.966 83.7604L441.414 89.1246C443.688 87.8747 444.243 86.3123 443.618 84.9235Z" fill="#263238"/>
<path d="M400.81 688.531C402.674 692.614 403.285 697.157 402.567 701.586C401.849 706.016 399.834 710.133 396.776 713.417C393.718 716.701 389.755 719.005 385.387 720.037C381.02 721.069 376.445 720.782 372.241 719.214C368.036 717.646 364.391 714.866 361.767 711.227C359.142 707.587 357.655 703.251 357.495 698.766C357.335 694.282 358.508 689.85 360.866 686.032C363.224 682.214 366.661 679.181 370.742 677.317C373.453 676.079 376.381 675.387 379.359 675.28C382.337 675.174 385.307 675.655 388.099 676.696C390.891 677.738 393.451 679.319 395.632 681.35C397.813 683.38 399.572 685.821 400.81 688.531Z" stroke="#263238" stroke-width="1.736" stroke-miterlimit="10"/>
<path d="M386.313 708.98L388.049 712.695L386.435 713.424L384.699 709.744C381.846 710.994 378.645 711.203 375.654 710.334L375.758 708.078C378.393 708.863 381.218 708.722 383.761 707.678L379.89 699.207C375.949 699.953 371.835 700.509 369.891 696.255C368.467 693.165 369.474 689.468 374.231 686.829L372.495 683.131L374.092 682.385L375.828 686.065C378.177 685.054 380.761 684.712 383.292 685.076V687.332C381.07 687.019 378.804 687.282 376.713 688.096L380.602 696.637C384.647 695.839 388.952 695.127 390.931 699.432C392.424 702.574 391.313 706.359 386.313 708.98ZM378.883 696.95L375.185 688.895C372.008 690.631 371.297 693.079 372.234 695.127C373.345 697.575 375.914 697.488 378.883 696.95ZM388.709 700.647C387.546 698.096 384.785 698.304 381.765 698.911L385.445 706.967C388.865 705.074 389.646 702.713 388.709 700.647Z" fill="#263238"/>
<path d="M75.7942 335.947C72.4229 338.909 68.2494 340.804 63.8012 341.393C59.353 341.983 54.8299 341.24 50.8037 339.259C46.7776 337.278 43.4291 334.148 41.1818 330.264C38.9345 326.381 37.8891 321.918 38.1779 317.44C38.4667 312.962 40.0767 308.671 42.8044 305.108C45.532 301.545 49.2548 298.871 53.5021 297.424C57.7494 295.976 62.3304 295.821 66.666 296.977C71.0016 298.133 74.8971 300.549 77.86 303.918C79.8281 306.157 81.3359 308.761 82.2973 311.582C83.2586 314.403 83.6547 317.386 83.4629 320.361C83.271 323.335 82.495 326.243 81.1792 328.917C79.8634 331.592 78.0335 333.98 75.7942 335.947Z" stroke="#263238" stroke-width="1.736" stroke-miterlimit="10"/>
<path d="M52.0818 327.966L49.0264 330.656L47.8459 329.32L50.8839 326.664C48.8712 324.282 47.7482 321.275 47.707 318.157L49.9118 317.602C49.9128 320.336 50.8364 322.991 52.5331 325.136L59.4771 318.99C57.6196 315.432 55.9009 311.647 59.4771 308.574C62.0464 306.335 65.8656 306.231 69.7542 310.015L72.9138 307.342L74.0769 308.661L71.0389 311.335C72.655 313.301 73.6999 315.673 74.0595 318.192L71.9069 318.904C71.5611 316.684 70.6593 314.588 69.2855 312.81L62.22 319.008C64.147 322.636 66.0739 326.559 62.5151 329.702C59.9285 331.958 55.9878 332.08 52.0818 327.966ZM61.4562 317.376L68.105 311.526C65.4663 308.991 62.897 309.008 61.2999 310.484C59.2167 312.255 60.05 314.72 61.4041 317.376H61.4562ZM60.7444 327.792C62.8623 325.952 61.8728 323.365 60.4146 320.588L53.7657 326.438C56.4912 329.233 59.0258 329.337 60.7618 327.844L60.7444 327.792Z" fill="#263238"/>
<path d="M179.663 529.479C179.905 523.429 175.197 518.328 169.147 518.086C163.097 517.844 157.997 522.553 157.755 528.602C157.513 534.652 162.221 539.753 168.271 539.995C174.32 540.237 179.421 535.529 179.663 529.479Z" stroke="#263238" stroke-width="1.73739" stroke-miterlimit="10"/>
<path d="M171.864 531.161L173.114 532.671L172.472 533.209L171.222 531.716C170.048 532.66 168.58 533.164 167.073 533.14L166.83 532.063C168.155 532.098 169.453 531.682 170.51 530.883L167.629 527.411C165.893 528.261 164.052 529.043 162.594 527.307C161.553 526.057 161.553 524.199 163.427 522.359L162.16 520.849L162.82 520.311L164.07 521.804C165.036 521.036 166.195 520.549 167.42 520.397L167.733 521.439C166.66 521.588 165.64 521.999 164.764 522.637L167.663 526.109C169.399 525.223 171.361 524.373 172.871 526.109C173.93 527.393 173.896 529.303 171.864 531.161ZM166.899 526.508L164.157 523.227C162.907 524.477 162.889 525.675 163.566 526.508C164.243 527.341 165.597 527.116 166.899 526.508ZM171.951 526.977C171.083 525.953 169.833 526.387 168.479 527.064L171.222 530.345C172.559 529.025 172.646 527.81 171.951 526.959V526.977Z" fill="#263238"/>
<path d="M516.617 745.539C518.003 747.204 518.864 749.242 519.092 751.396C519.319 753.55 518.903 755.724 517.896 757.641C516.888 759.559 515.335 761.135 513.432 762.17C511.529 763.205 509.362 763.652 507.204 763.456C505.047 763.259 502.997 762.427 501.312 761.066C499.627 759.704 498.384 757.873 497.74 755.805C497.096 753.737 497.079 751.524 497.692 749.446C498.305 747.369 499.52 745.52 501.184 744.133C503.419 742.276 506.298 741.381 509.192 741.645C512.085 741.909 514.755 743.309 516.617 745.539Z" stroke="#263238" stroke-width="1.736" stroke-miterlimit="10"/>
<path d="M512.451 756.912L513.718 758.423L513.059 758.961L511.809 757.468C510.641 758.412 509.179 758.916 507.677 758.892L507.434 757.815C508.76 757.858 510.061 757.441 511.114 756.635L508.233 753.163C506.497 754.013 504.639 754.795 503.198 753.059C502.139 751.809 502.139 749.951 504.014 748.111L502.764 746.601L503.424 746.062L504.674 747.555C505.636 746.782 506.798 746.294 508.024 746.149L508.337 747.191C507.258 747.34 506.233 747.751 505.351 748.389L508.267 751.861C510.003 750.975 511.965 750.125 513.475 751.861C514.482 753.145 514.447 755.055 512.451 756.912ZM507.469 752.191L504.726 748.91C503.459 750.159 503.441 751.357 504.136 752.191C504.83 753.024 506.149 752.868 507.469 752.191ZM512.503 752.677C511.635 751.635 510.385 752.069 509.031 752.677L511.774 755.958C513.128 754.777 513.215 753.562 512.503 752.729V752.677Z" fill="#263238"/>
<path d="M216.805 121.471C217.358 115.447 212.922 110.115 206.898 109.563C200.873 109.01 195.541 113.446 194.989 119.471C194.436 125.495 198.872 130.827 204.897 131.379C210.921 131.932 216.253 127.496 216.805 121.471Z" stroke="#263238" stroke-width="1.736" stroke-miterlimit="10"/>
<path d="M210.178 124.836L211.428 126.347L210.769 126.885L209.519 125.392C208.352 126.339 206.889 126.843 205.387 126.815L205.144 125.739C206.469 125.774 207.767 125.358 208.824 124.559L205.943 121.087C204.207 121.937 202.349 122.718 200.908 120.982C199.867 119.732 199.849 117.875 201.742 116.035L200.474 114.524L201.134 113.986L202.384 115.479C203.348 114.709 204.509 114.222 205.734 114.073L206.047 115.115C204.974 115.264 203.954 115.675 203.078 116.313L205.977 119.785C207.713 118.899 209.675 118.049 211.185 119.785C212.21 121.069 212.158 122.979 210.178 124.836ZM205.179 120.166L202.436 116.816C201.186 118.066 201.151 119.264 201.846 120.097C202.54 120.93 203.859 120.791 205.179 120.166ZM210.231 120.635C209.363 119.611 208.095 120.045 206.759 120.635L209.501 123.916C210.838 122.701 210.925 121.486 210.231 120.635Z" fill="#263238"/>
<path opacity="0.2" d="M452.767 569.581C452.767 569.581 439.382 637.511 357.287 652.909C357.287 652.909 335.847 670.009 328.712 680.13C321.577 690.251 283.576 707.455 244.864 761.132C206.151 814.809 148.516 644.351 148.516 644.351L275.903 478.91L452.767 569.581Z" fill="black" fill-opacity="0.7"/>
<path d="M525.729 250.625C525.729 250.625 569.997 228.978 579.736 232.71C589.475 236.442 598.832 258.837 561.594 280.276C524.357 301.716 535.468 341.661 535.468 341.661H562.028C562.028 341.661 577.965 348.154 584.162 356.504C590.36 364.854 594.787 393.325 598.328 402.977C601.87 412.629 600.064 422.298 590.36 425.441C590.36 425.441 584.162 452.453 585.933 464.431C587.704 476.41 586.819 484.117 575.309 485.576C572.413 485.878 569.486 485.546 566.73 484.604C563.975 483.663 561.458 482.133 559.352 480.122C557.247 478.111 555.604 475.666 554.537 472.956C553.47 470.247 553.006 467.338 553.175 464.431L544.321 496.512L550.519 508.838C559.274 512.227 567.365 517.127 574.424 523.316C586.819 533.941 599.214 536.84 595.672 548.679C592.131 560.519 585.048 573.278 547.863 558.488C510.678 543.697 479.69 485.576 479.69 485.576L457.348 282.915L525.729 250.625Z" fill="white"/>
<path opacity="0.4" d="M572.323 367.041C552.255 394.4 574.458 425.909 574.458 425.909C574.458 425.909 560.57 433.651 560.171 453.407C560.015 461.618 562.081 473.093 564.546 483.718C560.937 482.013 557.924 479.261 555.9 475.822C553.875 472.382 552.932 468.413 553.192 464.431L544.321 496.512L550.519 508.82C557.039 511.316 563.185 514.698 568.781 518.872C563.278 531.51 561.594 547.134 562.081 563.244C557.246 561.96 552.497 560.371 547.863 558.487C510.678 543.679 479.69 485.575 479.69 485.575L457.348 282.897L525.729 250.625C525.729 250.625 549.911 238.803 566.473 234.133C565.188 249.618 568.209 265.641 570.396 274.564C567.571 276.631 564.633 278.538 561.594 280.276C524.409 301.715 535.468 341.661 535.468 341.661H562.046C562.046 341.661 577.184 347.841 583.676 355.878C579.236 358.867 575.387 362.652 572.323 367.041Z" fill="#3446CD"/>
<path d="M456.568 536.927C456.568 536.927 408.411 631.348 321.611 652.771C321.611 652.771 318.295 671.45 303.609 679.47C295.762 683.741 264.097 731.186 236.304 774.499L82.3555 680.06C91.834 670.686 102.632 659.888 113.603 648.622C145.719 615.881 179.988 579.182 190.474 561.023C199.848 544.878 211.705 516.859 222.034 490.524C235.262 456.846 246.026 425.91 246.026 425.91L297.342 368.865L378.014 279.166L381.486 290.641L456.568 536.927Z" fill="white"/>
<path opacity="0.4" d="M378.083 279.166L456.568 536.927C456.568 536.927 408.411 631.348 321.611 652.771C321.611 652.771 318.295 671.45 303.609 679.47C296.56 683.307 270.33 721.933 244.949 761.062C254.358 728.773 281.596 677.3 281.596 677.3C264.115 656.59 269.218 634.768 276.215 640.983C283.211 647.198 300.796 664.662 301.907 665.756C294.182 656.659 292.394 642.407 292.394 642.407C292.394 642.407 314.059 656.815 315.813 633.727C317.566 610.638 302.827 554.218 302.827 554.218L264.132 405.859L378.083 279.166Z" fill="#3446CD"/>
<path d="M457.348 282.915L525.729 250.625C525.729 250.625 569.997 228.978 579.736 232.71C589.475 236.442 598.832 258.837 561.594 280.276C524.357 301.716 535.468 341.661 535.468 341.661H562.028C562.028 341.661 577.965 348.154 584.162 356.504C590.36 364.854 594.787 393.325 598.328 402.977C601.87 412.629 600.064 422.298 590.36 425.441C590.36 425.441 584.162 452.453 585.933 464.431C587.704 476.41 586.819 484.117 575.309 485.576C572.413 485.878 569.486 485.546 566.73 484.604C563.975 483.663 561.458 482.133 559.352 480.122C557.247 478.111 555.604 475.666 554.537 472.956C553.47 470.247 553.006 467.338 553.175 464.431L544.321 496.512L550.519 508.838C559.274 512.227 567.365 517.127 574.424 523.316C586.819 533.941 599.214 536.84 595.672 548.679C592.131 560.519 585.048 573.278 547.863 558.488C510.678 543.697 479.69 485.576 479.69 485.576" stroke="#263238" stroke-width="1.736" stroke-linecap="round" stroke-linejoin="round"/>
<path d="M590.359 425.44C577.079 429.033 561.594 426.377 555.83 402.872C550.067 379.367 561.594 354.264 569.111 351.955" stroke="#263238" stroke-width="1.736" stroke-linecap="round" stroke-linejoin="round"/>
<path d="M553.177 464.433C553.177 464.433 552.292 434.209 563.367 426.744" stroke="#263238" stroke-width="1.736" stroke-linecap="round" stroke-linejoin="round"/>
<path opacity="0.4" d="M230.227 614.545C230.227 614.545 197.781 610.5 190.542 595.987C184.553 583.974 152.09 628.971 113.672 648.623C145.788 615.882 180.057 579.183 190.542 561.024C199.916 544.88 211.773 516.861 222.102 490.525C221.582 512.364 209.95 545.8 213.266 563.212C209.713 564.151 206.674 566.453 204.805 569.618C202.937 572.782 202.39 576.556 203.284 580.12C205.767 593.956 230.227 614.545 230.227 614.545Z" fill="#3446CD"/>
<path d="M456.566 536.924C456.566 536.924 408.41 631.345 321.592 652.767C321.592 652.767 318.294 671.446 303.607 679.467C295.761 683.737 264.113 731.182 236.285 774.495" stroke="#263238" stroke-width="1.736" stroke-linecap="round" stroke-linejoin="round"/>
<path d="M82.3555 680.061C119.436 643.414 176.429 585.31 190.543 561.023C211.896 524.272 246.095 425.893 246.095 425.893L378.031 279.166" stroke="#263238" stroke-width="1.736" stroke-linecap="round" stroke-linejoin="round"/>
<path d="M302.742 391.223C302.742 391.223 323.019 409.381 328.782 425.943" stroke="#263238" stroke-width="1.736" stroke-linecap="round" stroke-linejoin="round"/>
<path d="M542.083 126.744H323.92C317.467 126.744 312.236 131.975 312.236 138.427V602.859C312.236 609.312 317.467 614.543 323.92 614.543H542.083C548.535 614.543 553.766 609.312 553.766 602.859V138.427C553.766 131.975 548.535 126.744 542.083 126.744Z" fill="#263238"/>
<path d="M480.871 140.023L476.254 148.477C475.765 149.395 475.038 150.163 474.149 150.701C473.259 151.239 472.241 151.526 471.202 151.533H394.818C393.78 151.527 392.763 151.244 391.872 150.713C390.98 150.182 390.247 149.422 389.749 148.512L385.148 140.058C384.654 139.144 383.922 138.381 383.03 137.849C382.137 137.318 381.118 137.037 380.079 137.037H326.697C325.937 137.039 325.184 137.192 324.482 137.485C323.781 137.779 323.144 138.208 322.608 138.749C322.073 139.289 321.649 139.93 321.362 140.634C321.075 141.338 320.929 142.092 320.934 142.853V599.421C320.934 600.951 321.54 602.419 322.621 603.502C323.701 604.586 325.167 605.197 326.697 605.202H539.288C540.05 605.206 540.805 605.06 541.511 604.772C542.216 604.483 542.857 604.058 543.398 603.521C543.938 602.983 544.367 602.345 544.66 601.641C544.953 600.937 545.103 600.183 545.103 599.421V142.853C545.103 141.32 544.494 139.849 543.41 138.765C542.326 137.681 540.856 137.072 539.323 137.072H485.958C484.923 137.062 483.905 137.331 483.01 137.85C482.115 138.369 481.376 139.12 480.871 140.023Z" fill="#3446CD" stroke="#263238" stroke-width="1.736" stroke-linecap="round" stroke-linejoin="round"/>
<path d="M416.432 144.121C418.148 144.121 419.539 142.73 419.539 141.014C419.539 139.297 418.148 137.906 416.432 137.906C414.715 137.906 413.324 139.297 413.324 141.014C413.324 142.73 414.715 144.121 416.432 144.121Z" stroke="white" stroke-width="1.736" stroke-miterlimit="10"/>
<path d="M452.662 141.013C452.659 141.393 452.543 141.764 452.329 142.078C452.115 142.393 451.813 142.637 451.461 142.781C451.109 142.924 450.722 142.959 450.349 142.883C449.976 142.807 449.635 142.622 449.367 142.352C449.099 142.082 448.917 141.738 448.844 141.365C448.771 140.992 448.811 140.605 448.957 140.254C449.103 139.903 449.35 139.603 449.667 139.392C449.983 139.181 450.355 139.068 450.735 139.068C450.99 139.068 451.242 139.119 451.477 139.217C451.712 139.315 451.925 139.458 452.104 139.639C452.283 139.82 452.425 140.034 452.521 140.27C452.617 140.506 452.665 140.758 452.662 141.013Z" stroke="white" stroke-width="1.736" stroke-miterlimit="10"/>
<path d="M444.015 139.797H425.128C424.969 139.797 424.812 139.828 424.665 139.89C424.519 139.951 424.386 140.041 424.274 140.154C424.163 140.267 424.075 140.401 424.016 140.548C423.957 140.696 423.928 140.853 423.93 141.012C423.93 141.33 424.056 141.634 424.281 141.859C424.505 142.084 424.81 142.21 425.128 142.21H444.015C444.333 142.21 444.638 142.084 444.862 141.859C445.087 141.634 445.213 141.33 445.213 141.012C445.215 140.853 445.186 140.696 445.127 140.548C445.068 140.401 444.98 140.267 444.869 140.154C444.757 140.041 444.624 139.951 444.478 139.89C444.331 139.828 444.174 139.797 444.015 139.797Z" fill="white"/>
<path d="M360.463 148.617H340.1V157.262H360.463V148.617Z" stroke="#263238" stroke-width="1.736" stroke-linecap="round" stroke-linejoin="round"/>
<path d="M363.605 150.076H360.445V155.822H363.605V150.076Z" stroke="#263238" stroke-width="1.736" stroke-linecap="round" stroke-linejoin="round"/>
<path d="M504.759 154.137H501.148V157.279H504.759V154.137Z" stroke="#263238" stroke-width="1.736" stroke-linecap="round" stroke-linejoin="round"/>
<path d="M511.806 150.98H508.195V157.282H511.806V150.98Z" stroke="#263238" stroke-width="1.736" stroke-linecap="round" stroke-linejoin="round"/>
<path d="M518.857 147.82H515.246V157.264H518.857V147.82Z" stroke="#263238" stroke-width="1.736" stroke-linecap="round" stroke-linejoin="round"/>
<path d="M525.888 144.66H522.277V157.264H525.888V144.66Z" stroke="#263238" stroke-width="1.736" stroke-linecap="round" stroke-linejoin="round"/>
<path opacity="0.5" d="M543.611 237.916H322.375V448.927H543.611V237.916Z" fill="white"/>
<path d="M383.481 204.221V207.884C383.481 212.415 381.311 214.828 376.867 214.828H374.766V225.435H370.322V197.225H376.867C381.311 197.225 383.481 199.69 383.481 204.221ZM374.801 201.269V210.835H376.902C378.308 210.835 379.072 210.193 379.072 208.179V203.926C379.072 201.912 378.308 201.269 376.902 201.269H374.801Z" fill="#263238"/>
<path d="M399.4 225.487H394.921L394.14 220.365H388.707L387.925 225.487H383.846L388.377 197.225H394.869L399.4 225.487ZM389.262 216.529H393.55L391.449 202.242H391.363L389.262 216.529Z" fill="#263238"/>
<path d="M403.637 216.13L398.029 197.225H402.751L406.102 210.106H406.188L409.539 197.225H413.775L408.168 216.13V225.487H403.723L403.637 216.13Z" fill="#263238"/>
<path d="M424.835 217.293H424.922L427.908 197.225H434.088V225.487H429.887V205.228L426.901 225.487H422.7L419.471 205.505V225.487H415.426V197.225H421.606L424.835 217.293Z" fill="#263238"/>
<path d="M441.759 209.134H447.887V213.178H441.793V221.459H449.466V225.487H437.314V197.225H449.466V201.269H441.793L441.759 209.134Z" fill="#263238"/>
<path d="M456.22 205.019H456.133V225.487H452.141V197.225H457.713L462.192 214.151V197.225H466.15V225.487H461.602L456.22 205.019Z" fill="#263238"/>
<path d="M468.129 197.225H481.861V201.269H477.208V225.487H472.764V201.269H468.129V197.225Z" fill="#263238"/>
<path d="M489.776 196.914C494.081 196.914 496.303 199.501 496.303 204.014V204.9H492.102V203.737C492.102 201.705 491.303 200.942 489.88 200.942C488.456 200.942 487.675 201.705 487.675 203.737C487.675 205.768 488.56 207.33 491.46 209.865C495.175 213.146 496.355 215.472 496.355 218.701C496.355 223.232 494.081 225.818 489.724 225.818C485.366 225.818 483.109 223.232 483.109 218.701V216.965H487.31V218.996C487.31 221.01 488.196 221.739 489.602 221.739C491.008 221.739 491.911 221.01 491.911 218.996C491.911 216.982 491.026 215.402 488.109 212.851C484.394 209.587 483.231 207.243 483.231 204.014C483.231 199.501 485.453 196.914 489.776 196.914Z" fill="#263238"/>
<path d="M525.886 263.488H340.1V291.247H525.886V263.488Z" fill="white" stroke="#263238" stroke-width="1.736" stroke-linecap="round" stroke-linejoin="round"/>
<path d="M525.884 315.553H340.098V343.311H525.884V315.553Z" fill="white" stroke="#263238" stroke-width="1.736" stroke-linecap="round" stroke-linejoin="round"/>
<path d="M525.886 362.891H340.1V390.649H525.886V362.891Z" fill="white" stroke="#263238" stroke-width="1.736" stroke-linecap="round" stroke-linejoin="round"/>
<path d="M428.061 400.771H340.098V433.269H428.061V400.771Z" fill="white" stroke="#263238" stroke-width="1.736" stroke-linecap="round" stroke-linejoin="round"/>
<path d="M525.905 400.771H437.941V433.269H525.905V400.771Z" fill="white" stroke="#263238" stroke-width="1.736" stroke-linecap="round" stroke-linejoin="round"/>
<path d="M353.569 277.187L355.028 278.021L354.767 278.507L353.292 277.656V279.392H352.753V277.656L351.278 278.507L351 278.021L352.476 277.187L351 276.371L351.278 275.868L352.753 276.736V275H353.292V276.736L354.767 275.868L355.028 276.371L353.569 277.187Z" fill="#263238"/>
<path d="M358.344 277.187L359.803 278.021L359.525 278.507L358.067 277.656V279.392H357.511V277.656L356.053 278.507L355.758 278.021L357.233 277.187L355.758 276.371L356.053 275.868L357.511 276.736V275H358.101V276.736L359.56 275.868L359.837 276.371L358.344 277.187Z" fill="#263238"/>
<path d="M363.099 277.187L364.557 278.021L364.279 278.507L362.821 277.656V279.392H362.283V277.656L360.825 278.507L360.547 278.021L362.005 277.187L360.547 276.371L360.825 275.868L362.283 276.736V275H362.821V276.736L364.279 275.868L364.557 276.371L363.099 277.187Z" fill="#263238"/>
<path d="M367.856 277.187L369.315 278.021L369.054 278.507L367.579 277.656V279.392H367.04V277.656L365.565 278.507L365.287 278.021L366.763 277.187L365.287 276.371L365.565 275.868L367.04 276.736V275H367.579V276.736L369.054 275.868L369.315 276.371L367.856 277.187Z" fill="#263238"/>
<path d="M372.632 277.187L374.09 278.021L373.812 278.507L372.354 277.656V279.392H371.798V277.656L370.34 278.507L370.045 278.021L371.521 277.187L370.045 276.371L370.34 275.868L371.798 276.736V275H372.354V276.736L373.812 275.868L374.09 276.371L372.632 277.187Z" fill="#263238"/>
<path d="M377.388 277.187L378.846 278.021L378.568 278.507L377.11 277.656V279.392H376.572V277.656L375.114 278.507L374.836 278.021L376.294 277.187L374.836 276.371L375.114 275.868L376.572 276.736V275H377.197V276.736L378.655 275.868L378.933 276.371L377.388 277.187Z" fill="#263238"/>
<path d="M382.144 277.187L383.602 278.021L383.341 278.507L381.866 277.656V279.392H381.328V277.656L379.852 278.507L379.574 278.021L381.05 277.187L379.574 276.371L379.852 275.868L381.328 276.736V275H381.866V276.736L383.341 275.868L383.602 276.371L382.144 277.187Z" fill="#263238"/>
<path d="M386.917 277.187L388.375 278.021L388.097 278.507L386.622 277.656V279.392H386.083V277.656L384.625 278.507L384.33 278.021L385.806 277.187L384.33 276.371L384.625 275.868L386.083 276.736V275H386.622V276.736L388.097 275.868L388.375 276.371L386.917 277.187Z" fill="#263238"/>
<path d="M391.673 277.187L393.131 278.021L392.854 278.507L391.395 277.656V279.392H390.857V277.656L389.399 278.507L389.121 278.021L390.579 277.187L389.121 276.371L389.399 275.868L390.857 276.736V275H391.395V276.736L392.854 275.868L393.131 276.371L391.673 277.187Z" fill="#263238"/>
<path d="M396.433 277.187L397.891 278.021L397.63 278.507L396.155 277.656V279.392H395.617V277.656L394.141 278.507L393.863 278.021L395.322 277.187L393.863 276.371L394.141 275.868L395.617 276.736V275H396.155V276.736L397.63 275.868L397.891 276.371L396.433 277.187Z" fill="#263238"/>
<path d="M401.204 277.187L402.645 278.021L402.384 278.507L400.909 277.656V279.392H400.371V277.656L398.912 278.507L398.617 278.021L400.093 277.187L398.617 276.371L398.912 275.868L400.371 276.736V275H400.909V276.736L402.384 275.868L402.645 276.371L401.204 277.187Z" fill="#263238"/>
<path d="M353.569 329.187L355.028 330.021L354.767 330.507L353.292 329.656V331.392H352.753V329.656L351.278 330.507L351 330.021L352.476 329.187L351 328.371L351.278 327.868L352.753 328.736V327H353.292V328.736L354.767 327.868L355.028 328.371L353.569 329.187Z" fill="#263238"/>
<path d="M358.344 329.187L359.803 330.021L359.525 330.507L358.067 329.656V331.392H357.511V329.656L356.053 330.507L355.758 330.021L357.233 329.187L355.758 328.371L356.053 327.868L357.511 328.736V327H358.101V328.736L359.56 327.868L359.837 328.371L358.344 329.187Z" fill="#263238"/>
<path d="M363.099 329.187L364.557 330.021L364.279 330.507L362.821 329.656V331.392H362.283V329.656L360.825 330.507L360.547 330.021L362.005 329.187L360.547 328.371L360.825 327.868L362.283 328.736V327H362.821V328.736L364.279 327.868L364.557 328.371L363.099 329.187Z" fill="#263238"/>
<path d="M367.856 329.187L369.315 330.021L369.054 330.507L367.579 329.656V331.392H367.04V329.656L365.565 330.507L365.287 330.021L366.763 329.187L365.287 328.371L365.565 327.868L367.04 328.736V327H367.579V328.736L369.054 327.868L369.315 328.371L367.856 329.187Z" fill="#263238"/>
<path d="M372.632 329.187L374.09 330.021L373.812 330.507L372.354 329.656V331.392H371.798V329.656L370.34 330.507L370.045 330.021L371.521 329.187L370.045 328.371L370.34 327.868L371.798 328.736V327H372.354V328.736L373.812 327.868L374.09 328.371L372.632 329.187Z" fill="#263238"/>
<path d="M377.388 329.187L378.846 330.021L378.568 330.507L377.11 329.656V331.392H376.572V329.656L375.114 330.507L374.836 330.021L376.294 329.187L374.836 328.371L375.114 327.868L376.572 328.736V327H377.197V328.736L378.655 327.868L378.933 328.371L377.388 329.187Z" fill="#263238"/>
<path d="M382.144 329.187L383.602 330.021L383.341 330.507L381.866 329.656V331.392H381.328V329.656L379.852 330.507L379.574 330.021L381.05 329.187L379.574 328.371L379.852 327.868L381.328 328.736V327H381.866V328.736L383.341 327.868L383.602 328.371L382.144 329.187Z" fill="#263238"/>
<path d="M386.917 329.187L388.375 330.021L388.097 330.507L386.622 329.656V331.392H386.083V329.656L384.625 330.507L384.33 330.021L385.806 329.187L384.33 328.371L384.625 327.868L386.083 328.736V327H386.622V328.736L388.097 327.868L388.375 328.371L386.917 329.187Z" fill="#263238"/>
<path d="M391.673 329.187L393.131 330.021L392.854 330.507L391.395 329.656V331.392H390.857V329.656L389.399 330.507L389.121 330.021L390.579 329.187L389.121 328.371L389.399 327.868L390.857 328.736V327H391.395V328.736L392.854 327.868L393.131 328.371L391.673 329.187Z" fill="#263238"/>
<path d="M396.433 329.187L397.891 330.021L397.63 330.507L396.155 329.656V331.392H395.617V329.656L394.141 330.507L393.863 330.021L395.322 329.187L393.863 328.371L394.141 327.868L395.617 328.736V327H396.155V328.736L397.63 327.868L397.891 328.371L396.433 329.187Z" fill="#263238"/>
<path d="M401.204 329.187L402.645 330.021L402.384 330.507L400.909 329.656V331.392H400.371V329.656L398.912 330.507L398.617 330.021L400.093 329.187L398.617 328.371L398.912 327.868L400.371 328.736V327H400.909V328.736L402.384 327.868L402.645 328.371L401.204 329.187Z" fill="#263238"/>
<path d="M412.231 373.74V381.969H411.433V374.504H409.488V373.74H412.231Z" fill="#263238"/>
<path d="M419.798 381.17V381.934H414.035V381.326L417.507 377.976C418.427 377.073 418.618 376.518 418.618 375.962C418.618 375.007 417.941 374.417 416.691 374.417C416.272 374.39 415.853 374.459 415.465 374.619C415.077 374.778 414.73 375.024 414.451 375.337L413.844 374.816C414.214 374.418 414.667 374.106 415.171 373.902C415.675 373.698 416.217 373.607 416.76 373.636C418.496 373.636 419.486 374.487 419.486 375.858C419.459 376.359 419.324 376.848 419.09 377.291C418.857 377.735 418.529 378.122 418.132 378.427L415.337 381.17H419.798Z" fill="#263238"/>
<path d="M426.293 379.573C426.293 380.945 425.286 382.004 423.307 382.004C422.224 382.038 421.169 381.659 420.355 380.945L420.755 380.268C421.449 380.905 422.364 381.248 423.307 381.222C424.678 381.222 425.425 380.597 425.425 379.573C425.425 378.549 424.73 377.941 423.203 377.941H422.612V377.316L424.886 374.469H420.685V373.74H425.893V374.348L423.584 377.212C425.407 377.334 426.293 378.254 426.293 379.573Z" fill="#263238"/>
<path d="M434.45 379.766H432.8V381.936H431.967V379.766H427.332V379.158L431.689 373.707H432.627L428.426 378.95H431.984V377.04H432.8V378.95H434.45V379.766Z" fill="#263238"/>
<path d="M443.879 379.506C443.879 380.912 442.906 382.006 440.893 382.006C439.81 382.038 438.756 381.66 437.941 380.947L438.358 380.27C438.693 380.589 439.088 380.837 439.52 381.001C439.953 381.165 440.413 381.241 440.875 381.225C442.281 381.225 443.011 380.548 443.011 379.489C443.011 378.43 442.351 377.753 440.268 377.753H438.532L438.966 373.621H443.462V374.385H439.695L439.417 376.989H440.476C442.941 377.076 443.879 378.065 443.879 379.506Z" fill="#263238"/>
<path d="M451.118 379.472C451.114 379.828 451.037 380.18 450.891 380.504C450.745 380.829 450.533 381.12 450.269 381.358C450.004 381.596 449.693 381.777 449.355 381.889C449.017 382 448.66 382.041 448.305 382.007C446.118 382.007 444.938 380.479 444.938 377.893C444.938 375.306 446.465 373.64 448.687 373.64C449.37 373.614 450.047 373.769 450.649 374.091L450.302 374.768C449.817 374.49 449.263 374.358 448.705 374.386C446.969 374.386 445.788 375.514 445.788 377.754C445.788 377.945 445.788 378.17 445.788 378.414C446.028 377.962 446.393 377.589 446.839 377.339C447.286 377.09 447.795 376.974 448.305 377.007C448.656 376.963 449.012 376.994 449.35 377.097C449.688 377.201 450 377.375 450.266 377.608C450.531 377.841 450.745 378.127 450.892 378.449C451.039 378.77 451.116 379.119 451.118 379.472ZM450.284 379.472C450.284 378.379 449.486 377.736 448.219 377.736C447.964 377.705 447.707 377.726 447.461 377.797C447.215 377.868 446.986 377.989 446.788 378.151C446.59 378.313 446.427 378.514 446.309 378.741C446.191 378.968 446.12 379.217 446.101 379.472C446.101 380.375 446.847 381.208 448.271 381.208C448.518 381.249 448.771 381.235 449.012 381.168C449.253 381.101 449.477 380.983 449.669 380.821C449.86 380.659 450.014 380.458 450.12 380.231C450.227 380.005 450.283 379.758 450.284 379.507V379.472Z" fill="#263238"/>
<path d="M457.781 373.74V374.348L454.309 381.969H453.389L456.774 374.504H452.556V376.032H451.723V373.74H457.781Z" fill="#263238"/>
<path d="M464.987 379.644C464.987 381.102 463.754 382.005 461.792 382.005C459.831 382.005 458.633 381.102 458.633 379.644C458.628 379.177 458.781 378.722 459.068 378.353C459.355 377.984 459.758 377.723 460.213 377.613C459.834 377.511 459.501 377.284 459.268 376.969C459.034 376.654 458.915 376.269 458.928 375.877C458.928 374.54 460.056 373.707 461.792 373.707C463.528 373.707 464.692 374.54 464.692 375.877C464.685 376.269 464.554 376.649 464.317 376.962C464.079 377.274 463.748 377.502 463.372 377.613C463.831 377.719 464.241 377.978 464.534 378.347C464.828 378.715 464.987 379.173 464.987 379.644ZM464.119 379.644C464.119 378.637 463.251 377.995 461.792 377.995C460.334 377.995 459.484 378.637 459.484 379.644C459.484 380.651 460.334 381.38 461.792 381.38C463.251 381.38 464.119 380.686 464.119 379.627V379.644ZM461.775 377.318C463.06 377.318 463.824 376.745 463.824 375.842C463.824 374.94 463.008 374.367 461.775 374.367C460.543 374.367 459.744 374.922 459.744 375.842C459.744 376.762 460.508 377.318 461.775 377.318Z" fill="#263238"/>
<path d="M475.161 377.753C475.161 380.548 473.633 382.006 471.394 382.006C470.717 382.03 470.047 381.874 469.45 381.555L469.797 380.878C470.282 381.155 470.836 381.288 471.394 381.26C473.13 381.26 474.293 380.114 474.293 377.892C474.309 377.672 474.309 377.452 474.293 377.232C474.06 377.685 473.699 378.06 473.254 378.31C472.81 378.56 472.302 378.674 471.793 378.638C471.445 378.677 471.093 378.642 470.759 378.537C470.426 378.431 470.118 378.256 469.856 378.023C469.594 377.791 469.384 377.506 469.239 377.188C469.094 376.869 469.018 376.523 469.016 376.173C469.019 375.817 469.096 375.466 469.242 375.141C469.388 374.817 469.6 374.526 469.865 374.288C470.129 374.049 470.44 373.869 470.778 373.757C471.116 373.645 471.474 373.605 471.828 373.638C473.928 373.638 475.161 375.166 475.161 377.753ZM473.998 376.121C473.998 375.218 473.251 374.385 471.828 374.385C471.578 374.344 471.322 374.359 471.078 374.428C470.834 374.497 470.608 374.618 470.417 374.784C470.225 374.949 470.071 375.155 469.967 375.386C469.863 375.617 469.811 375.868 469.814 376.121C469.814 377.215 470.613 377.857 471.88 377.857C472.381 377.895 472.877 377.735 473.261 377.41C473.644 377.085 473.884 376.622 473.928 376.121H473.998Z" fill="#263238"/>
<path d="M478.633 373.74V381.969H477.782V374.504H475.838V373.74H478.633Z" fill="#263238"/>
<path d="M480.576 377.822C480.576 375.201 481.965 373.639 483.857 373.639C485.749 373.639 487.138 375.201 487.138 377.822C487.138 380.444 485.767 382.006 483.857 382.006C481.948 382.006 480.576 380.444 480.576 377.822ZM486.27 377.822C486.27 375.635 485.298 374.35 483.857 374.35C482.416 374.35 481.444 375.566 481.444 377.822C481.444 380.079 482.434 381.294 483.857 381.294C485.281 381.294 486.27 380.01 486.27 377.822Z" fill="#263238"/>
<path d="M490.611 373.74V381.969H489.761V374.504H487.816V373.74H490.611Z" fill="#263238"/>
<path d="M497.92 373.74V381.969H497.069V374.504H495.125V373.74H497.92Z" fill="#263238"/>
<path d="M502.137 373.74V381.969H501.304V374.504H499.359V373.74H502.137Z" fill="#263238"/>
<path d="M509.706 381.169V381.933H503.943V381.326L507.415 377.975C508.335 377.073 508.526 376.517 508.526 375.961C508.526 375.007 507.849 374.416 506.599 374.416C506.18 374.39 505.761 374.458 505.373 374.618C504.985 374.777 504.638 375.023 504.36 375.337L503.752 374.816C504.124 374.419 504.577 374.109 505.08 373.905C505.584 373.701 506.126 373.609 506.668 373.635C508.404 373.635 509.394 374.486 509.394 375.857C509.367 376.358 509.232 376.847 508.998 377.29C508.765 377.734 508.438 378.121 508.04 378.427L505.175 381.169H509.706Z" fill="#263238"/>
<path d="M513.04 373.74V381.969H512.12V374.504H510.193V373.74H513.04Z" fill="#263238"/>
<path d="M374.61 371.832V370.582C374.61 370.002 374.379 369.445 373.969 369.035C373.559 368.625 373.003 368.395 372.422 368.395H350.254C349.674 368.395 349.117 368.625 348.707 369.035C348.297 369.445 348.066 370.002 348.066 370.582V371.832H374.61Z" fill="#263238"/>
<path d="M348.066 373.551V382.752C348.066 383.332 348.297 383.888 348.707 384.298C349.117 384.708 349.674 384.939 350.254 384.939H372.422C373.003 384.939 373.559 384.708 373.969 384.298C374.379 383.888 374.61 383.332 374.61 382.752V373.551H348.066Z" fill="#263238"/>
<path d="M348.398 422.002C348.398 419.381 349.77 417.836 351.679 417.836C353.589 417.836 354.961 419.381 354.961 422.002C354.961 424.624 353.572 426.186 351.679 426.186C349.787 426.186 348.398 424.624 348.398 422.002ZM354.093 422.002C354.093 419.815 353.103 418.53 351.679 418.53C350.256 418.53 349.266 419.746 349.266 422.002C349.266 424.259 350.239 425.474 351.679 425.474C353.12 425.474 354.145 424.207 354.145 422.002H354.093Z" fill="#263238"/>
<path d="M362.479 423.826C362.479 425.284 361.246 426.187 359.285 426.187C357.323 426.187 356.125 425.284 356.125 423.826C356.118 423.36 356.27 422.906 356.558 422.539C356.846 422.172 357.251 421.916 357.705 421.812C357.337 421.693 357.015 421.461 356.785 421.15C356.554 420.839 356.427 420.463 356.42 420.076C356.42 418.74 357.549 417.906 359.285 417.906C361.021 417.906 362.184 418.74 362.184 420.076C362.174 420.465 362.043 420.841 361.81 421.152C361.576 421.463 361.252 421.694 360.882 421.812C361.338 421.915 361.745 422.171 362.036 422.537C362.326 422.904 362.483 423.358 362.479 423.826ZM361.611 423.826C361.611 422.819 360.743 422.194 359.285 422.194C357.827 422.194 356.976 422.819 356.976 423.826C356.976 424.833 357.844 425.562 359.285 425.562C360.726 425.562 361.611 424.833 361.611 423.809V423.826ZM359.354 421.5C360.639 421.5 361.403 420.927 361.403 420.042C361.403 419.156 360.587 418.549 359.354 418.549C358.122 418.549 357.323 419.104 357.323 420.024C357.323 420.944 358.018 421.5 359.354 421.5Z" fill="#263238"/>
<path d="M366.626 416.24H367.39L363.501 427.281H362.824L366.626 416.24Z" fill="#263238"/>
<path d="M373.24 425.352V426.116H367.476V425.508L370.948 422.175C371.868 421.255 372.042 420.699 372.042 420.144C372.042 419.189 371.382 418.599 370.132 418.599C369.711 418.572 369.289 418.641 368.898 418.8C368.507 418.959 368.158 419.205 367.875 419.519L367.285 418.998C367.655 418.601 368.109 418.291 368.613 418.09C369.117 417.889 369.66 417.802 370.202 417.835C371.938 417.835 372.91 418.668 372.91 420.04C372.892 420.54 372.763 421.031 372.532 421.475C372.3 421.92 371.973 422.307 371.573 422.609L368.778 425.352H373.24Z" fill="#263238"/>
<path d="M379.82 423.686C379.82 425.092 378.848 426.186 376.834 426.186C375.752 426.218 374.698 425.84 373.883 425.127L374.299 424.45C374.634 424.769 375.03 425.017 375.462 425.181C375.894 425.345 376.355 425.421 376.817 425.405C378.223 425.405 378.952 424.728 378.952 423.669C378.952 422.61 378.31 421.933 376.209 421.933H374.473L374.89 417.818H379.386V418.565H375.619L375.341 421.186H376.4C378.883 421.273 379.82 422.245 379.82 423.686Z" fill="#263238"/>
<path d="M352.234 412.612V413.08H348.623V407.977H352.095V408.463H349.144V410.199H351.783V410.667H349.144V412.56L352.234 412.612Z" fill="#263238"/>
<path d="M356.628 413.08L354.996 410.824L353.26 413.08H352.635L354.579 410.459L352.843 407.977H353.451L354.996 410.06L356.523 407.977H357.096L355.36 410.442L357.305 413.08H356.628Z" fill="#263238"/>
<path d="M362.042 409.73C362.042 410.806 361.243 411.466 359.958 411.466H358.587V413.08H358.049V407.977H359.958C361.243 407.977 362.042 408.636 362.042 409.73ZM361.503 409.73C361.503 408.914 360.965 408.445 359.941 408.445H358.587V410.997H359.941C360.965 410.997 361.503 410.528 361.503 409.73Z" fill="#263238"/>
<path d="M365.201 407.977H367.267C367.944 407.977 368.593 408.245 369.071 408.724C369.55 409.203 369.819 409.852 369.819 410.528C369.819 411.205 369.55 411.854 369.071 412.333C368.593 412.812 367.944 413.08 367.267 413.08H365.201V407.977ZM367.232 412.612C367.785 412.612 368.315 412.392 368.705 412.002C369.096 411.611 369.316 411.081 369.316 410.528C369.316 409.976 369.096 409.446 368.705 409.055C368.315 408.665 367.785 408.445 367.232 408.445H365.739V412.612H367.232Z" fill="#263238"/>
<path d="M374.005 410.701V413.079H373.501V412.472C373.36 412.689 373.163 412.863 372.931 412.976C372.698 413.089 372.439 413.137 372.182 413.114C371.331 413.114 370.793 412.663 370.793 412.003C370.793 411.343 371.175 410.909 372.269 410.909H373.484V410.684C373.499 410.541 373.481 410.397 373.431 410.262C373.382 410.127 373.302 410.006 373.198 409.907C373.094 409.808 372.968 409.734 372.831 409.691C372.694 409.648 372.549 409.637 372.407 409.66C371.939 409.652 371.483 409.812 371.123 410.111L370.897 409.729C371.341 409.378 371.894 409.193 372.46 409.208C372.665 409.178 372.875 409.195 373.072 409.258C373.27 409.321 373.451 409.429 373.6 409.574C373.75 409.718 373.864 409.895 373.934 410.09C374.004 410.286 374.028 410.495 374.005 410.701ZM373.484 411.916V411.291H372.286C371.539 411.291 371.296 411.586 371.296 411.986C371.296 412.385 371.661 412.698 372.269 412.698C372.526 412.716 372.783 412.652 373.001 412.514C373.219 412.377 373.389 412.174 373.484 411.934V411.916Z" fill="#263238"/>
<path d="M377.424 412.836C377.203 413.027 376.918 413.126 376.626 413.113C376.475 413.129 376.323 413.112 376.18 413.062C376.037 413.012 375.907 412.931 375.799 412.825C375.691 412.718 375.608 412.59 375.556 412.447C375.504 412.305 375.484 412.153 375.497 412.002V409.676H374.82V409.242H375.497V408.461H376.018V409.294H377.181V409.728H376.018V411.933C376.005 412.024 376.012 412.117 376.04 412.206C376.067 412.294 376.115 412.374 376.179 412.441C376.242 412.508 376.32 412.56 376.407 412.592C376.493 412.624 376.586 412.636 376.678 412.627C376.885 412.631 377.087 412.564 377.251 412.436L377.424 412.836Z" fill="#263238"/>
<path d="M381.573 411.328H378.448C378.475 411.703 378.648 412.052 378.931 412.299C379.214 412.546 379.583 412.671 379.958 412.648C380.18 412.657 380.401 412.616 380.605 412.529C380.809 412.442 380.992 412.311 381.139 412.144L381.434 412.491C381.244 412.697 381.013 412.859 380.755 412.967C380.498 413.074 380.22 413.125 379.941 413.116C379.678 413.131 379.414 413.091 379.168 412.998C378.921 412.905 378.697 412.761 378.509 412.577C378.321 412.392 378.174 412.17 378.077 411.925C377.979 411.68 377.934 411.418 377.944 411.155C377.93 410.903 377.968 410.651 378.055 410.414C378.142 410.178 378.277 409.962 378.451 409.779C378.625 409.597 378.835 409.452 379.067 409.354C379.3 409.257 379.55 409.208 379.802 409.21C380.058 409.19 380.316 409.228 380.557 409.32C380.797 409.412 381.014 409.556 381.192 409.742C381.37 409.928 381.504 410.151 381.585 410.396C381.666 410.64 381.691 410.899 381.659 411.155L381.573 411.328ZM378.361 410.929H381.087C381.049 410.594 380.889 410.285 380.637 410.06C380.386 409.836 380.061 409.712 379.724 409.712C379.387 409.712 379.061 409.836 378.81 410.06C378.559 410.285 378.399 410.594 378.361 410.929Z" fill="#263238"/>
<path d="M445.352 417.906V426.118H444.519V418.653H442.574V417.906H445.352Z" fill="#263238"/>
<path d="M452.923 425.351V426.115H447.16V425.507L450.632 422.174C451.552 421.254 451.743 420.699 451.743 420.143C451.743 419.188 451.066 418.598 449.816 418.598C449.397 418.571 448.978 418.64 448.59 418.799C448.202 418.959 447.855 419.205 447.576 419.518L446.969 418.997C447.34 418.602 447.794 418.293 448.298 418.092C448.802 417.892 449.344 417.803 449.885 417.834C451.621 417.834 452.611 418.667 452.611 420.039C452.584 420.539 452.449 421.028 452.215 421.472C451.982 421.915 451.654 422.303 451.257 422.608L448.462 425.351H452.923Z" fill="#263238"/>
<path d="M459.416 423.757C459.416 425.128 458.409 426.187 456.43 426.187C455.347 426.221 454.292 425.842 453.479 425.128L453.895 424.451C454.232 424.772 454.63 425.022 455.065 425.186C455.501 425.35 455.965 425.425 456.43 425.406C457.801 425.406 458.548 424.781 458.548 423.757C458.548 422.732 457.853 422.125 456.326 422.125H455.735V421.5L458.009 418.653H453.808V417.906H459.016V418.496L456.69 421.413C458.53 421.517 459.416 422.437 459.416 423.757Z" fill="#263238"/>
<path d="M399.817 470.229H395.234L394.245 472.434H393.342L397.092 464.223H397.96L401.709 472.434H400.789L399.817 470.229ZM399.487 469.535L397.543 465.125L395.564 469.535H399.487Z" fill="#263238"/>
<path d="M402.213 469.342C402.198 468.923 402.27 468.504 402.425 468.114C402.58 467.724 402.814 467.37 403.113 467.075C403.411 466.78 403.768 466.549 404.159 466.399C404.551 466.248 404.97 466.181 405.39 466.2C405.865 466.172 406.34 466.271 406.764 466.488C407.188 466.705 407.547 467.031 407.803 467.433L407.195 467.849C407.001 467.568 406.741 467.338 406.439 467.178C406.137 467.017 405.801 466.932 405.459 466.929C404.819 466.929 404.205 467.183 403.753 467.636C403.3 468.088 403.046 468.702 403.046 469.342C403.046 469.982 403.3 470.596 403.753 471.048C404.205 471.501 404.819 471.755 405.459 471.755C405.799 471.753 406.134 471.669 406.436 471.512C406.737 471.356 406.998 471.129 407.195 470.852L407.803 471.269C407.542 471.665 407.182 471.986 406.759 472.199C406.335 472.412 405.863 472.511 405.39 472.484C404.97 472.504 404.551 472.436 404.159 472.285C403.768 472.135 403.411 471.905 403.113 471.61C402.814 471.314 402.58 470.96 402.425 470.57C402.27 470.18 402.198 469.762 402.213 469.342Z" fill="#263238"/>
<path d="M412.753 472.051C412.387 472.35 411.923 472.505 411.451 472.485C411.219 472.5 410.986 472.466 410.769 472.384C410.551 472.302 410.354 472.175 410.189 472.01C410.025 471.846 409.897 471.648 409.816 471.431C409.734 471.213 409.699 470.981 409.715 470.749V466.964H408.621V466.253H409.697V464.898H410.531V466.253H412.423V466.964H410.531V470.645C410.509 470.793 410.521 470.945 410.567 471.088C410.612 471.232 410.69 471.362 410.794 471.471C410.897 471.58 411.025 471.664 411.166 471.716C411.306 471.768 411.457 471.788 411.607 471.773C411.941 471.778 412.266 471.668 412.527 471.461L412.753 472.051Z" fill="#263238"/>
<path d="M414.088 464.309C414.088 464.148 414.152 463.993 414.266 463.879C414.38 463.765 414.534 463.701 414.696 463.701C414.857 463.701 415.011 463.765 415.125 463.879C415.239 463.993 415.303 464.148 415.303 464.309C415.303 464.47 415.239 464.624 415.125 464.738C415.011 464.852 414.857 464.916 414.696 464.916C414.534 464.916 414.38 464.852 414.266 464.738C414.152 464.624 414.088 464.47 414.088 464.309ZM414.279 466.253H415.112V472.433H414.279V466.253Z" fill="#263238"/>
<path d="M416.794 469.343C416.794 468.723 416.978 468.116 417.323 467.599C417.667 467.083 418.157 466.68 418.73 466.442C419.303 466.204 419.934 466.14 420.543 466.26C421.152 466.38 421.712 466.678 422.152 467.115C422.592 467.553 422.893 468.111 423.016 468.72C423.139 469.328 423.08 469.959 422.844 470.534C422.609 471.108 422.209 471.6 421.695 471.947C421.18 472.295 420.574 472.482 419.954 472.485C419.536 472.5 419.121 472.429 418.732 472.276C418.343 472.123 417.99 471.893 417.694 471.598C417.398 471.304 417.165 470.952 417.01 470.564C416.856 470.176 416.782 469.761 416.794 469.343ZM422.228 469.343C422.204 468.895 422.049 468.464 421.783 468.103C421.516 467.742 421.15 467.468 420.728 467.313C420.307 467.159 419.85 467.132 419.413 467.235C418.977 467.338 418.58 467.567 418.272 467.893C417.964 468.22 417.759 468.629 417.682 469.071C417.605 469.513 417.66 469.968 417.839 470.38C418.018 470.791 418.314 471.141 418.69 471.385C419.066 471.63 419.505 471.759 419.954 471.756C420.265 471.759 420.574 471.698 420.861 471.576C421.147 471.454 421.405 471.274 421.619 471.047C421.833 470.821 421.997 470.552 422.102 470.259C422.207 469.966 422.25 469.654 422.228 469.343Z" fill="#263238"/>
<path d="M430.528 468.856V472.432H429.695V468.96C429.73 468.704 429.706 468.442 429.626 468.196C429.547 467.949 429.413 467.724 429.235 467.536C429.057 467.348 428.839 467.202 428.597 467.109C428.355 467.016 428.096 466.978 427.837 466.999C427.543 466.977 427.248 467.02 426.972 467.125C426.696 467.229 426.446 467.394 426.241 467.606C426.035 467.818 425.879 468.072 425.783 468.351C425.687 468.63 425.654 468.927 425.685 469.221V472.467H424.852V466.287H425.65V467.485C425.9 467.096 426.249 466.781 426.661 466.57C427.072 466.36 427.532 466.262 427.994 466.287C428.336 466.263 428.679 466.314 428.999 466.435C429.32 466.556 429.611 466.745 429.851 466.989C430.092 467.233 430.277 467.527 430.394 467.849C430.511 468.171 430.557 468.515 430.528 468.856Z" fill="#263238"/>
<path d="M436.847 464.971V468.2H441.082V468.946H436.847V472.418H435.979V464.207H441.603V464.954L436.847 464.971Z" fill="#263238"/>
<path d="M442.924 464.309C442.924 464.148 442.988 463.993 443.102 463.879C443.216 463.765 443.37 463.701 443.531 463.701C443.693 463.701 443.847 463.765 443.961 463.879C444.075 463.993 444.139 464.148 444.139 464.309C444.139 464.47 444.075 464.624 443.961 464.738C443.847 464.852 443.693 464.916 443.531 464.916C443.37 464.916 443.216 464.852 443.102 464.738C442.988 464.624 442.924 464.47 442.924 464.309ZM443.097 466.253H443.931V472.433H443.097V466.253Z" fill="#263238"/>
<path d="M451.966 466.256V471.689C452.031 472.108 451.997 472.536 451.866 472.938C451.734 473.341 451.51 473.707 451.21 474.006C450.911 474.305 450.545 474.53 450.142 474.661C449.74 474.793 449.312 474.827 448.894 474.762C447.851 474.808 446.828 474.475 446.012 473.825L446.428 473.182C447.111 473.747 447.973 474.048 448.859 474.033C450.421 474.033 451.133 473.304 451.133 471.794V470.96C450.871 471.349 450.512 471.664 450.092 471.874C449.673 472.084 449.206 472.182 448.737 472.158C448.325 472.189 447.91 472.135 447.52 471.999C447.129 471.863 446.771 471.647 446.468 471.366C446.164 471.085 445.922 470.744 445.757 470.365C445.591 469.986 445.506 469.577 445.506 469.163C445.506 468.75 445.591 468.341 445.757 467.962C445.922 467.583 446.164 467.242 446.468 466.961C446.771 466.679 447.129 466.464 447.52 466.328C447.91 466.192 448.325 466.137 448.737 466.169C449.214 466.15 449.687 466.253 450.113 466.469C450.538 466.685 450.901 467.006 451.168 467.401V466.221L451.966 466.256ZM451.168 469.19C451.182 468.723 451.056 468.264 450.807 467.869C450.558 467.475 450.197 467.164 449.77 466.975C449.343 466.787 448.87 466.731 448.411 466.813C447.952 466.896 447.528 467.113 447.193 467.438C446.858 467.763 446.628 468.18 446.532 468.637C446.436 469.093 446.478 469.568 446.653 470C446.828 470.432 447.128 470.803 447.515 471.063C447.902 471.324 448.358 471.463 448.824 471.464C449.128 471.483 449.433 471.439 449.719 471.335C450.005 471.23 450.266 471.068 450.486 470.857C450.707 470.647 450.881 470.393 450.998 470.112C451.115 469.831 451.173 469.529 451.168 469.224V469.19Z" fill="#263238"/>
<path d="M459.867 466.254V472.434H459.068V471.305C458.838 471.683 458.51 471.993 458.119 472.2C457.728 472.408 457.288 472.507 456.846 472.486C456.491 472.519 456.133 472.473 455.799 472.35C455.464 472.228 455.161 472.032 454.912 471.778C454.662 471.523 454.473 471.216 454.357 470.879C454.241 470.542 454.202 470.184 454.242 469.83V466.254H455.075V469.726C455.038 469.984 455.059 470.247 455.137 470.495C455.216 470.744 455.349 470.972 455.528 471.162C455.706 471.352 455.925 471.5 456.168 471.594C456.411 471.688 456.673 471.725 456.933 471.705C457.224 471.719 457.516 471.67 457.787 471.56C458.058 471.451 458.301 471.284 458.501 471.071C458.701 470.858 458.852 470.604 458.944 470.327C459.036 470.049 459.066 469.755 459.033 469.465V466.219L459.867 466.254Z" fill="#263238"/>
<path d="M465.246 466.203V467.019H465.038C464.742 467.005 464.448 467.058 464.175 467.171C463.902 467.285 463.657 467.457 463.459 467.676C463.26 467.894 463.111 468.154 463.024 468.437C462.937 468.719 462.913 469.017 462.954 469.31V472.452H462.121V466.272H462.92V467.487C463.135 467.066 463.472 466.719 463.887 466.49C464.301 466.261 464.774 466.161 465.246 466.203Z" fill="#263238"/>
<path d="M472.19 469.604H466.982C467 469.905 467.077 470.2 467.208 470.471C467.34 470.743 467.524 470.985 467.75 471.185C467.976 471.385 468.239 471.539 468.524 471.637C468.809 471.735 469.111 471.776 469.412 471.757C469.768 471.767 470.122 471.699 470.448 471.558C470.775 471.417 471.067 471.206 471.305 470.941L471.773 471.479C471.33 471.944 470.76 472.268 470.133 472.411C469.507 472.553 468.852 472.507 468.252 472.279C467.651 472.051 467.132 471.651 466.757 471.129C466.383 470.607 466.171 469.986 466.149 469.344C466.127 468.936 466.19 468.528 466.332 468.145C466.475 467.762 466.695 467.413 466.978 467.118C467.261 466.824 467.602 466.59 467.979 466.433C468.356 466.275 468.761 466.196 469.169 466.202C469.577 466.193 469.982 466.27 470.359 466.427C470.735 466.584 471.075 466.818 471.356 467.114C471.637 467.41 471.853 467.761 471.99 468.145C472.128 468.529 472.184 468.937 472.155 469.344C472.155 469.344 472.19 469.5 472.19 469.604ZM466.982 468.979H471.357C471.357 468.399 471.126 467.843 470.716 467.433C470.306 467.022 469.749 466.792 469.169 466.792C468.589 466.792 468.033 467.022 467.623 467.433C467.212 467.843 466.982 468.399 466.982 468.979Z" fill="#263238"/>
<path d="M403.497 505.366V508.977H400.286V505.505C397.417 505.416 394.631 504.519 392.248 502.918L393.984 498.995C395.839 500.29 397.998 501.08 400.251 501.287V495.905C396.657 495.02 392.665 493.839 392.665 489.221C392.665 485.749 395.147 482.868 400.251 482.277V478.701H403.463V482.173C405.77 482.304 408.014 482.983 410.007 484.152L408.393 488.11C406.88 487.212 405.204 486.622 403.463 486.374V491.86C407.039 492.693 410.98 493.891 410.98 498.439C411.014 501.859 408.566 504.759 403.497 505.366ZM400.286 491.131V486.583C398.55 486.965 397.89 487.902 397.89 488.961C397.89 490.02 398.862 490.68 400.286 491.131ZM405.824 498.891C405.824 497.762 404.886 497.155 403.497 496.669V501.113C405.112 500.766 405.824 499.932 405.824 498.891Z" fill="#263238"/>
<path d="M430.023 500.852V505.122H412.975V501.737L421.655 493.509C423.669 491.599 424.016 490.453 424.016 489.342C424.016 487.606 422.784 486.547 420.405 486.547C419.502 486.512 418.603 486.7 417.789 487.093C416.975 487.487 416.269 488.074 415.735 488.804L411.934 486.356C412.961 484.968 414.318 483.858 415.882 483.124C417.445 482.391 419.167 482.058 420.891 482.155C425.926 482.155 429.276 484.742 429.276 488.839C429.276 491.026 428.651 493.023 425.492 495.956L420.284 500.852H430.023Z" fill="#263238"/>
<path d="M432.125 493.838C432.125 486.39 436.257 482.154 441.795 482.154C447.332 482.154 451.464 486.39 451.464 493.838C451.464 501.285 447.367 505.503 441.795 505.503C436.222 505.503 432.125 501.285 432.125 493.838ZM446.221 493.838C446.221 488.63 444.485 486.581 441.795 486.581C439.104 486.581 437.42 488.699 437.42 493.838C437.42 498.976 439.156 501.077 441.795 501.077C444.433 501.077 446.152 498.959 446.152 493.838H446.221Z" fill="#263238"/>
<path d="M454.016 493.838C454.016 486.39 458.147 482.154 463.685 482.154C469.223 482.154 473.355 486.39 473.355 493.838C473.355 501.285 469.258 505.503 463.685 505.503C458.113 505.503 454.016 501.285 454.016 493.838ZM468.095 493.838C468.095 488.63 466.359 486.581 463.685 486.581C461.012 486.581 459.293 488.699 459.293 493.838C459.293 498.976 461.029 501.077 463.685 501.077C466.341 501.077 468.095 498.959 468.095 493.838Z" fill="#263238"/>
<path d="M468.98 562.584H397.005C392.541 562.58 388.26 560.804 385.103 557.647C381.946 554.49 380.171 550.21 380.166 545.745C380.166 541.278 381.94 536.993 385.097 533.832C388.255 530.671 392.538 528.893 397.005 528.889H468.98C471.193 528.889 473.384 529.325 475.428 530.172C477.472 531.019 479.329 532.261 480.893 533.827C482.457 535.392 483.697 537.251 484.542 539.296C485.387 541.341 485.821 543.532 485.819 545.745C485.819 550.211 484.045 554.494 480.887 557.652C477.729 560.81 473.446 562.584 468.98 562.584Z" fill="#263238"/>
<path d="M409.904 543.872C409.904 545.989 408.377 547.257 405.86 547.257H403.186V550.382H402.145V540.486H405.86C408.377 540.556 409.904 541.823 409.904 543.872ZM408.845 543.872C408.845 542.292 407.804 541.389 405.825 541.389H403.186V546.337H405.825C407.804 546.406 408.845 545.503 408.845 543.872Z" fill="white"/>
<path d="M417.49 545.833V550.451H416.535V549.287C416.256 549.703 415.87 550.037 415.418 550.253C414.967 550.47 414.465 550.562 413.966 550.52C412.23 550.52 411.258 549.652 411.258 548.35C411.258 547.048 411.987 546.249 414.122 546.249H416.483V545.798C416.483 544.531 415.771 543.836 414.383 543.836C413.478 543.823 412.599 544.13 411.9 544.704L411.449 543.958C412.313 543.278 413.388 542.921 414.487 542.951C414.884 542.894 415.289 542.927 415.671 543.05C416.053 543.173 416.403 543.381 416.692 543.659C416.982 543.936 417.204 544.277 417.342 544.654C417.481 545.03 417.531 545.434 417.49 545.833ZM416.483 548.211V546.996H414.157C412.716 546.996 412.247 547.569 412.247 548.333C412.247 549.097 412.942 549.739 414.122 549.739C414.628 549.771 415.13 549.64 415.555 549.365C415.98 549.09 416.306 548.685 416.483 548.211Z" fill="white"/>
<path d="M426.326 543.003L422.611 551.336C421.986 552.794 421.205 553.263 420.146 553.263C419.486 553.262 418.852 553.007 418.375 552.551L418.844 551.805C419.019 551.988 419.229 552.133 419.462 552.231C419.695 552.33 419.945 552.38 420.198 552.378C420.875 552.378 421.326 552.065 421.743 551.128L422.073 550.399L418.74 542.969H419.799L422.593 549.305L425.319 543.003H426.326Z" fill="white"/>
<path d="M434.816 550.519V552.151H434.104V550.537C432.858 550.527 431.657 550.071 430.719 549.252L431.135 548.436C431.956 549.168 433.005 549.591 434.104 549.634V545.919C432.542 545.537 430.962 545.051 430.962 543.176C430.962 541.822 431.934 540.642 434.104 540.485V538.854H434.816V540.399C435.833 540.416 436.825 540.716 437.68 541.267L437.333 542.1C436.574 541.625 435.709 541.345 434.816 541.284V545.034C436.413 545.416 438.097 545.867 438.097 547.759C438.097 549.2 437.055 550.398 434.816 550.519ZM434.104 544.93V541.458C432.646 541.579 431.986 542.326 431.986 543.194C431.986 544.062 432.941 544.617 434.104 544.93ZM437.055 547.898C437.055 546.77 436.031 546.388 434.816 546.162V549.634C436.361 549.513 437.055 548.801 437.055 547.898Z" fill="white"/>
<path d="M446.256 549.549V550.451H439.312V549.74L443.427 545.695C444.538 544.601 444.746 543.959 444.746 543.247C444.746 542.101 443.948 541.407 442.437 541.407C441.934 541.381 441.43 541.466 440.963 541.655C440.495 541.844 440.074 542.132 439.729 542.5L439 541.876C439.444 541.405 439.983 541.036 440.583 540.794C441.182 540.551 441.826 540.44 442.472 540.469C444.468 540.469 445.753 541.494 445.753 543.143C445.728 543.747 445.569 544.338 445.286 544.872C445.004 545.407 444.606 545.872 444.121 546.233L440.753 549.549H446.256Z" fill="white"/>
<path d="M447.473 545.503C447.473 542.344 449.122 540.469 451.413 540.469C453.705 540.469 455.371 542.344 455.371 545.503C455.371 548.663 453.635 550.538 451.413 550.538C449.191 550.538 447.473 548.663 447.473 545.503ZM454.33 545.503C454.33 542.864 453.149 541.406 451.413 541.406C449.677 541.406 448.497 542.864 448.497 545.503C448.497 548.142 449.695 549.6 451.413 549.6C453.132 549.6 454.33 548.142 454.33 545.503Z" fill="white"/>
<path d="M456.828 545.503C456.828 542.344 458.564 540.469 460.786 540.469C463.008 540.469 464.744 542.344 464.744 545.503C464.744 548.663 463.008 550.538 460.786 550.538C458.564 550.538 456.828 548.663 456.828 545.503ZM463.772 545.503C463.772 542.864 462.592 541.406 460.873 541.406C459.154 541.406 457.957 542.864 457.957 545.503C457.957 548.142 459.137 549.6 460.873 549.6C462.609 549.6 463.685 548.142 463.685 545.503H463.772Z" fill="white"/>
<path d="M324.093 509.568C326.697 549.582 308.157 594.145 308.157 594.145L208.007 565.953L190.543 561.023C207.903 536.91 216.166 489.413 211.635 450.977C211.288 448.078 211.08 445.353 210.924 442.749C209.188 411.049 222.364 401.779 233.492 387.77C245.644 372.597 272.69 315.309 272.69 301.751C272.69 288.193 306.629 255 299.078 217.329C299.078 217.329 309.337 210.958 319.649 216.183C324.336 218.544 329.006 223.284 332.773 232.068C341.61 252.709 329.197 311.056 318.642 325.361L298.314 409.522C298.314 409.522 305.171 421.344 311.907 442.801C318.602 464.494 322.693 486.907 324.093 509.568Z" fill="white"/>
<path opacity="0.4" d="M210.922 442.748C216.599 458.285 222.623 468.788 222.102 490.557C221.581 512.327 209.95 545.832 213.266 563.244C211.372 563.803 209.603 564.722 208.058 565.952L190.594 561.022C207.954 536.909 216.217 489.412 211.686 450.977C211.287 448.078 211.079 445.352 210.922 442.748Z" fill="#3446CD"/>
<path opacity="0.4" d="M318.642 325.361L298.314 409.522C298.314 409.522 305.171 421.344 311.907 442.801C298.14 420.615 286.439 413.983 286.439 413.983C295.606 402.995 302.671 322.618 302.671 322.618C302.671 322.618 331.402 288.853 328.711 253.525C327.848 240.651 324.782 228.021 319.649 216.184C324.336 218.545 329.006 223.284 332.773 232.068C341.61 252.709 329.197 311.056 318.642 325.361Z" fill="#3446CD"/>
<path d="M190.543 561.024C207.903 536.911 216.166 489.414 211.653 450.979C207.139 412.544 221.444 402.926 233.509 387.754C245.574 372.581 272.69 315.31 272.69 301.735C272.69 288.159 306.612 255.019 299.078 217.331C299.078 217.331 320.726 203.911 332.773 232.069C341.61 252.728 329.197 311.057 318.642 325.379L298.331 409.523C298.331 409.523 320.014 446.934 324.093 509.569C326.697 549.584 308.157 594.164 308.157 594.164" stroke="#263238" stroke-width="1.736" stroke-linecap="round" stroke-linejoin="round"/>
<path d="M257.482 626.174C257.482 626.174 280.276 640.201 293.574 662.387" stroke="#263238" stroke-width="1.736" stroke-linecap="round" stroke-linejoin="round"/>
<path d="M321.508 652.718C321.508 652.718 301.874 655.513 284.132 634.282C272.762 620.689 238.233 614.544 230.316 578.99" stroke="#263238" stroke-width="1.736" stroke-linecap="round" stroke-linejoin="round"/>
<path opacity="0.2" d="M606.871 757.848C556.614 733.804 587.046 714.535 517.901 684.693C448.756 654.851 448.062 629.349 456.394 570.707C464.727 512.065 458.131 449.691 478.233 444.396C498.336 439.101 462.505 358.221 485.941 329.629L601.281 553.99L606.871 757.848Z" fill="black" fill-opacity="0.7"/>
<path d="M794.133 755.503C791.772 748.75 789.376 741.372 787.519 734.671C785.123 725.991 783.248 719.047 778.839 710.975C778.144 709.69 777.398 708.336 776.564 706.878C771.86 698.493 765.419 687.018 761.652 672.922C759.118 663.426 761.652 640.042 764.013 617.37C765.749 601.086 767.329 585.723 766.86 577.008L766.721 573.918C765.541 551.124 763.076 503.697 758.041 490.59C753.094 477.952 748.476 476.059 740.056 472.692C739.188 472.31 738.32 471.962 737.313 471.546C734.154 470.226 728.772 467.449 722.575 464.237C708.6 456.998 691.205 447.988 682.369 446.877C674.103 445.948 665.741 446.335 657.596 448.023C646.712 439.673 628.188 428.927 622.668 428.701C618.154 428.476 608.294 431.305 603.572 432.781L601.194 433.545C598.204 431.225 595.034 429.147 591.715 427.33C591.489 427.208 591.264 427.122 591.073 427.035C584.945 424.518 575.692 424.431 570.64 424.57C569.112 424.57 567.914 424.726 567.376 424.778C557.846 410.109 548.471 395.509 544.392 389.103C535.885 375.632 509.55 320.201 509.29 319.663C509.259 319.592 509.212 319.529 509.151 319.481C509.091 319.432 509.019 319.399 508.943 319.385C508.862 319.374 508.78 319.374 508.7 319.385C506.651 318.795 491.565 314.959 485.507 329.576C478.875 345.495 488.336 380.441 497.572 393.131C502.016 399.241 514.151 424.17 526.459 449.967C523.299 452.901 498.023 476.25 485.75 480.608C475.698 484.167 478.059 535.691 479.951 577.06C480.663 592.337 481.253 605.478 481.08 613.377C480.733 628.654 508.526 649.694 535.469 670.04C559.773 688.476 584.979 707.52 587.931 721.356C588.747 725.245 591.073 728.404 593.85 731.963C598.485 737.866 604.457 744.827 606.992 758.003C607.738 761.961 614.092 767.135 619.144 775.589H801.493C799.966 771.475 797.084 763.975 794.133 755.503ZM541.25 481.042C550.086 499.548 555.554 510.554 556.874 511.786C558.193 513.019 558.106 518.887 558.071 524.598C557.881 529.598 558.055 534.605 558.592 539.58C556.44 541.472 542.847 553.85 540.104 563.884L528.559 550.291L525.643 507.637C527.379 505.797 539.253 493.246 541.25 481.042Z" fill="white"/>
<path opacity="0.4" d="M741.811 599.958C746.099 639.973 746.151 661.673 750.959 673.252C759.084 692.8 771.045 696.758 771.045 696.758C767.067 689.181 763.907 681.203 761.618 672.957C759.101 663.461 761.618 640.077 763.979 617.405C765.715 601.121 767.312 585.74 766.861 577.026L766.705 573.936C765.524 551.159 763.059 503.732 758.025 490.608C753.095 477.97 748.46 476.077 740.04 472.692C739.172 472.328 738.304 471.98 737.297 471.564C734.138 470.244 728.773 467.467 722.558 464.255C708.584 457.016 691.189 448.006 682.353 446.895C674.087 445.956 665.724 446.342 657.58 448.041C646.695 439.691 628.172 428.945 622.652 428.719C618.138 428.494 605.899 432.052 601.143 433.563C621.975 450.558 651.973 471.755 651.973 471.755C675.704 476.477 672.666 486.771 682.266 492.587C690.946 497.795 699.244 482.553 706.57 481.216C716.153 479.48 727.037 489.583 726.551 501.84C725.058 535.605 738.13 565.603 741.811 599.958Z" fill="#3446CD"/>
<path opacity="0.4" d="M621.853 475.954C621.853 475.954 603.053 460.33 594.077 455.122C585.102 449.914 583.661 431.963 590.744 427.606C591.013 427.445 591.317 427.349 591.63 427.328L590.987 427.033C584.859 424.516 575.606 424.412 570.555 424.568C580.971 443.959 589.286 458.837 591.526 462.1C599.077 473.002 621.853 475.954 621.853 475.954Z" fill="#3446CD"/>
<path opacity="0.4" d="M593.331 718.926C594.129 714.777 587.29 702.625 584.286 697.695C577.464 686.446 498.25 616.45 509.725 597.771C521.2 579.092 531.686 592.91 538.942 594.125C544.15 594.993 558.455 586.47 558.385 585.758C556.753 571.366 570.034 562.009 570.034 562.009C570.034 562.009 568.819 504.721 565.763 505.694C562.708 506.666 526.148 419.675 526.148 419.675C526.148 419.675 487.504 368.289 489.692 344.315C491.879 320.341 508.649 319.924 508.649 319.924V319.282C506.6 318.692 491.514 314.855 485.456 329.472C478.824 345.391 488.285 380.337 497.521 393.027C501.965 399.138 514.1 424.067 526.408 449.864C523.249 452.798 497.972 476.147 485.699 480.504C475.647 484.063 478.008 535.587 479.901 576.956C480.612 592.233 481.203 605.375 481.029 613.273C480.682 628.55 508.475 649.591 535.418 669.937C559.722 688.373 584.929 707.417 587.88 721.253C588.696 725.141 591.022 728.301 593.8 731.86C593.247 727.572 593.09 723.243 593.331 718.926ZM541.251 481.094C550.087 499.6 555.555 510.606 556.875 511.839C558.194 513.072 558.107 518.939 558.073 524.651C557.882 529.651 558.056 534.658 558.593 539.632C556.441 541.525 542.848 553.902 540.105 563.936L528.561 550.344L525.644 507.69C527.38 505.798 539.254 493.246 541.251 481.042V481.094Z" fill="#3446CD"/>
<path d="M611.072 475.729C603.313 473.288 596.499 468.511 591.559 462.049C583.625 451.425 552.464 403.025 543.836 389.381C535.208 375.736 508.648 319.923 508.648 319.923C508.648 319.923 492.329 314.455 485.975 329.697C479.622 344.939 488.319 379.381 497.988 392.644C507.658 405.907 553.61 508.036 557.256 511.335C560.901 514.633 555.433 541.888 562.741 548.485" stroke="#263238" stroke-width="1.736" stroke-linecap="round" stroke-linejoin="round"/>
<path d="M559.235 539.822C559.235 539.822 542.396 554.491 540.417 565.202L527.918 550.498L524.967 507.411C524.967 507.411 540.053 492.308 540.886 478.871" stroke="#263238" stroke-width="1.736" stroke-linecap="round" stroke-linejoin="round"/>
<path d="M527.1 449.916C527.1 449.916 499.133 476.303 485.835 481.008C472.538 485.712 482.242 584.578 481.582 613.204C480.923 641.831 582.183 691.706 588.398 721.01C590.863 732.676 601.071 735.054 607.303 757.466" stroke="#263238" stroke-width="1.736" stroke-linecap="round" stroke-linejoin="round"/>
<path d="M566.906 425.352C566.906 425.352 582.131 423.981 590.707 427.557C599.283 431.133 634.107 461.044 642.509 466.756C650.911 472.467 663.549 474.637 665.945 480.8" stroke="#263238" stroke-width="1.736" stroke-linecap="round" stroke-linejoin="round"/>
<path d="M600.951 434.169C600.951 434.169 616.575 428.961 622.547 429.256C628.519 429.551 650.983 442.797 661.051 451.651C668.767 458.496 677.652 463.894 687.282 467.587" stroke="#263238" stroke-width="1.736" stroke-linecap="round" stroke-linejoin="round"/>
<path d="M657.389 448.648C665.542 446.893 673.929 446.488 682.214 447.45C694.921 449.186 726.829 467.935 737.002 472.171C747.175 476.407 752.035 477.188 757.382 490.867C762.729 504.547 765.177 556.558 766.253 577.112C767.33 597.666 756.618 656.534 761.045 673.095C765.472 689.657 773.458 702.434 778.301 711.287" stroke="#263238" stroke-width="1.736" stroke-linecap="round" stroke-linejoin="round"/>
<path d="M524.967 507.415C524.967 507.415 522.536 497.259 519.064 495.957" stroke="#263238" stroke-width="1.736" stroke-linecap="round" stroke-linejoin="round"/>
<path d="M527.918 550.502C529.089 556.421 530.673 562.251 532.657 567.949C535.157 574.112 531.268 583.035 531.268 583.035" stroke="#263238" stroke-width="1.736" stroke-linecap="round" stroke-linejoin="round"/>
<path d="M540.418 565.203C540.019 575.064 549.827 586.591 552.206 584.959" stroke="#263238" stroke-width="1.736" stroke-linecap="round" stroke-linejoin="round"/>
<path d="M590.363 507.41C590.363 507.41 600.901 490.363 611.004 489.53C621.108 488.696 632.774 503.036 639.006 501.682C645.238 500.327 653.085 491.161 663.57 489.53C674.056 487.898 678.969 492.897 687.284 493.314C695.6 493.731 696.45 482.62 706.38 481.162C716.31 479.704 719.695 484.634 726.362 485.919C733.028 487.203 734.694 481.943 740.093 478.975" stroke="#263238" stroke-width="1.736" stroke-linecap="round" stroke-linejoin="round"/>
</svg>
