<svg width="47" height="63" viewBox="0 0 47 63" fill="none" xmlns="http://www.w3.org/2000/svg">
<path d="M16.5532 35.0199L19.1364 26.4594L12.3364 21.4706H20.8339L23.4361 12.8206L26.0383 21.4706H34.5357L27.7167 26.4594L30.2999 35.0199L23.4361 29.706L16.5532 35.0199ZM6.85088 62.1682V40.3081C4.75009 38.241 3.11921 35.8212 1.95824 33.0487C0.797279 30.2757 0.216797 27.3094 0.216797 24.1499C0.216797 17.6773 2.46851 12.1893 6.97195 7.68582C11.4754 3.18238 16.9634 0.930664 23.4361 0.930664C29.9087 0.930664 35.3968 3.18238 39.9002 7.68582C44.4037 12.1893 46.6554 17.6773 46.6554 24.1499C46.6554 27.3094 46.0749 30.2757 44.9139 33.0487C43.753 35.8212 42.1221 38.241 40.0213 40.3081V62.1682L23.4361 57.1926L6.85088 62.1682ZM23.4361 44.0522C28.9645 44.0522 33.6636 42.1173 37.5335 38.2474C41.4034 34.3775 43.3383 29.6783 43.3383 24.1499C43.3383 18.6215 41.4034 13.9224 37.5335 10.0525C33.6636 6.18264 28.9645 4.2477 23.4361 4.2477C17.9077 4.2477 13.2085 6.18264 9.33866 10.0525C5.46878 13.9224 3.53384 18.6215 3.53384 24.1499C3.53384 29.6783 5.46878 34.3775 9.33866 38.2474C13.2085 42.1173 17.9077 44.0522 23.4361 44.0522ZM10.1679 57.4671L23.4361 53.7479L36.7043 57.4671V43.1019C34.8544 44.4624 32.7993 45.5139 30.5387 46.2564C28.2787 46.9983 25.9112 47.3692 23.4361 47.3692C20.961 47.3692 18.5935 46.9983 16.3335 46.2564C14.0729 45.5139 12.0177 44.4624 10.1679 43.1019V57.4671Z" fill="white"/>
</svg>
