<svg width="70" height="68" viewBox="0 0 70 68" fill="none" xmlns="http://www.w3.org/2000/svg">
<path d="M52.826 59.4688C52.8274 57.1678 52.37 54.8891 51.4799 52.7629C50.5899 50.6367 49.2846 48.7046 47.6387 47.0771C45.9927 45.4496 44.0384 44.1585 41.8874 43.2776C39.7364 42.3967 37.4308 41.9434 35.1025 41.9434C32.7741 41.9434 30.4685 42.3967 28.3175 43.2776C26.1665 44.1585 24.2122 45.4496 22.5662 47.0771C20.9203 48.7046 19.615 50.6367 18.725 52.7629C17.8349 54.8891 17.3775 57.1678 17.3789 59.4688H52.826Z" stroke="white" stroke-width="2.23234"/>
<path d="M43.0054 29.8697C43.0042 31.0044 42.7744 32.1275 42.3296 33.1736C41.8848 34.2196 41.2337 35.1678 40.4144 35.9627C39.5951 36.7577 38.6239 37.3836 37.5574 37.8039C36.4909 38.2242 35.3504 38.4306 34.2023 38.411C31.904 38.3206 29.7319 37.3479 28.1478 35.6998C26.5637 34.0516 25.6925 31.8579 25.7194 29.585V17.6905C25.7191 17.6754 25.7244 17.6607 25.7342 17.6491C25.744 17.6375 25.7576 17.6297 25.7727 17.6272C28.6941 17.1891 31.6425 16.9495 34.5971 16.9102C37.4244 16.9477 40.2452 17.1873 43.0374 17.6272C43.0544 17.6272 43.0707 17.6339 43.0827 17.6457C43.0947 17.6576 43.1014 17.6737 43.1014 17.6905L43.0054 29.8697Z" stroke="white" stroke-width="2.23234"/>
<path d="M25.7194 21.5815L16.895 17.5745C16.884 17.5667 16.875 17.5564 16.8688 17.5445C16.8626 17.5326 16.8594 17.5194 16.8594 17.506C16.8594 17.4926 16.8626 17.4794 16.8688 17.4675C16.875 17.4555 16.884 17.4452 16.895 17.4374L34.3731 9.19141H34.4371L51.8619 17.3531C51.8729 17.3596 51.8821 17.3689 51.8884 17.38C51.8948 17.3911 51.8981 17.4036 51.8981 17.4164C51.8981 17.4291 51.8948 17.4416 51.8884 17.4527C51.8821 17.4638 51.8729 17.4731 51.8619 17.4796L43.1015 21.5815" stroke="white" stroke-width="2.23234"/>
<path d="M25.7268 26.0215H23.2513C23.2513 26.0215 21.1172 26.0215 21.1172 29.2904C21.1172 32.3062 23.2513 32.3062 23.2513 32.3062H26.1536" stroke="white" stroke-width="2.23234"/>
<path d="M43.0078 26.4014H45.4833C45.4833 26.4014 47.6174 26.4014 47.6174 29.6597C47.6174 32.6755 45.4833 32.6755 45.4833 32.6755H42.5703" stroke="white" stroke-width="2.23234"/>
<path d="M50.9531 35.2987V17.9736" stroke="white" stroke-width="2.23234"/>
<path d="M50.9486 39.7919C52.2038 39.7919 53.2214 38.7863 53.2214 37.5458C53.2214 36.3054 52.2038 35.2998 50.9486 35.2998C49.6933 35.2998 48.6758 36.3054 48.6758 37.5458C48.6758 38.7863 49.6933 39.7919 50.9486 39.7919Z" stroke="white" stroke-width="2.23234"/>
<path d="M43.1008 24.5956C40.3022 24.0931 37.4623 23.8495 34.6179 23.868C31.6341 23.8089 28.6521 24.0527 25.7188 24.5956" stroke="white" stroke-width="2.23234"/>
</svg>
