<svg width="21" height="13" viewBox="0 0 21 13" fill="none" xmlns="http://www.w3.org/2000/svg">
<path d="M2.625 12.625C2.14375 12.625 1.73177 12.4536 1.38906 12.1109C1.04635 11.7682 0.875 11.3562 0.875 10.875V2.125C0.875 1.64375 1.04635 1.23177 1.38906 0.889063C1.73177 0.546354 2.14375 0.375 2.625 0.375H11.375C11.8562 0.375 12.2682 0.546354 12.6109 0.889063C12.9536 1.23177 13.125 1.64375 13.125 2.125V10.875C13.125 11.3562 12.9536 11.7682 12.6109 12.1109C12.2682 12.4536 11.8562 12.625 11.375 12.625H2.625ZM15.75 5.625C15.5021 5.625 15.2943 5.54115 15.1266 5.37344C14.9589 5.20573 14.875 4.99792 14.875 4.75V1.25C14.875 1.00208 14.9589 0.794271 15.1266 0.626563C15.2943 0.458854 15.5021 0.375 15.75 0.375H19.25C19.4979 0.375 19.7057 0.458854 19.8734 0.626563C20.0411 0.794271 20.125 1.00208 20.125 1.25V4.75C20.125 4.99792 20.0411 5.20573 19.8734 5.37344C19.7057 5.54115 19.4979 5.625 19.25 5.625H15.75ZM16.625 3.875H18.375V2.125H16.625V3.875ZM2.625 10.875H11.375V2.125H2.625V10.875ZM3.5 9.125H10.5L8.20312 6.0625L6.5625 8.25L5.35938 6.65313L3.5 9.125ZM15.75 12.625C15.5021 12.625 15.2943 12.5411 15.1266 12.3734C14.9589 12.2057 14.875 11.9979 14.875 11.75V8.25C14.875 8.00208 14.9589 7.79427 15.1266 7.62656C15.2943 7.45885 15.5021 7.375 15.75 7.375H19.25C19.4979 7.375 19.7057 7.45885 19.8734 7.62656C20.0411 7.79427 20.125 8.00208 20.125 8.25V11.75C20.125 11.9979 20.0411 12.2057 19.8734 12.3734C19.7057 12.5411 19.4979 12.625 19.25 12.625H15.75ZM16.625 10.875H18.375V9.125H16.625V10.875Z" fill="#D64101"/>
</svg>
